<mxfile host="app.diagrams.net" agent="Mozilla/5.0 (Windows NT 10.0; Win64; x64) AppleWebKit/537.36 (KHTML, like Gecko) Chrome/138.0.0.0 Safari/537.36" version="28.0.6" pages="2">
  <diagram name="Page-1" id="jsR8ZWDM8m9bZ2pkxOQI">
    <mxGraphModel dx="4163" dy="2993" grid="1" gridSize="10" guides="1" tooltips="1" connect="1" arrows="1" fold="1" page="1" pageScale="1" pageWidth="850" pageHeight="1100" math="0" shadow="0">
      <root>
        <mxCell id="0" />
        <mxCell id="1" parent="0" />
        <mxCell id="qvupkEEIyL3yOIonO_8t-2" value="src" style="shape=folder;fontStyle=1;tabWidth=110;tabHeight=30;tabPosition=left;html=1;boundedLbl=1;labelInHeader=1;container=1;collapsible=0;whiteSpace=wrap;" parent="1" vertex="1">
          <mxGeometry x="50" y="80" width="3941.5" height="3100" as="geometry" />
        </mxCell>
        <mxCell id="qvupkEEIyL3yOIonO_8t-3" value="" style="html=1;strokeColor=none;resizeWidth=1;resizeHeight=1;fillColor=none;part=1;connectable=0;allowArrows=0;deletable=0;whiteSpace=wrap;" parent="qvupkEEIyL3yOIonO_8t-2" vertex="1">
          <mxGeometry width="3760" height="1544.7457627118645" relative="1" as="geometry">
            <mxPoint y="30" as="offset" />
          </mxGeometry>
        </mxCell>
        <mxCell id="mD9Tr-Q8xh2cB8FxRo_p-68" value="sales" style="shape=folder;fontStyle=1;tabWidth=110;tabHeight=30;tabPosition=left;html=1;boundedLbl=1;labelInHeader=1;container=1;collapsible=0;whiteSpace=wrap;" parent="qvupkEEIyL3yOIonO_8t-2" vertex="1">
          <mxGeometry x="2830" y="50" width="891.5" height="505" as="geometry" />
        </mxCell>
        <mxCell id="mD9Tr-Q8xh2cB8FxRo_p-69" value="" style="html=1;strokeColor=none;resizeWidth=1;resizeHeight=1;fillColor=none;part=1;connectable=0;allowArrows=0;deletable=0;whiteSpace=wrap;" parent="mD9Tr-Q8xh2cB8FxRo_p-68" vertex="1">
          <mxGeometry width="891.4999999999999" height="318.7295081967213" relative="1" as="geometry">
            <mxPoint y="30" as="offset" />
          </mxGeometry>
        </mxCell>
        <mxCell id="mD9Tr-Q8xh2cB8FxRo_p-70" value="controllers" style="shape=folder;fontStyle=1;tabWidth=110;tabHeight=30;tabPosition=left;html=1;boundedLbl=1;labelInHeader=1;container=1;collapsible=0;whiteSpace=wrap;" parent="mD9Tr-Q8xh2cB8FxRo_p-68" vertex="1">
          <mxGeometry x="311.5" y="45" width="190" height="100" as="geometry" />
        </mxCell>
        <mxCell id="mD9Tr-Q8xh2cB8FxRo_p-71" value="" style="html=1;strokeColor=none;resizeWidth=1;resizeHeight=1;fillColor=none;part=1;connectable=0;allowArrows=0;deletable=0;whiteSpace=wrap;" parent="mD9Tr-Q8xh2cB8FxRo_p-70" vertex="1">
          <mxGeometry width="190" height="70.00000000000001" relative="1" as="geometry">
            <mxPoint y="30" as="offset" />
          </mxGeometry>
        </mxCell>
        <mxCell id="mD9Tr-Q8xh2cB8FxRo_p-72" value="salesController.js" style="html=1;whiteSpace=wrap;" parent="mD9Tr-Q8xh2cB8FxRo_p-70" vertex="1">
          <mxGeometry x="24.165151515151592" y="40" width="141.66666666666666" height="30" as="geometry" />
        </mxCell>
        <mxCell id="mD9Tr-Q8xh2cB8FxRo_p-73" value="routes" style="shape=folder;fontStyle=1;tabWidth=110;tabHeight=30;tabPosition=left;html=1;boundedLbl=1;labelInHeader=1;container=1;collapsible=0;whiteSpace=wrap;" parent="mD9Tr-Q8xh2cB8FxRo_p-68" vertex="1">
          <mxGeometry x="11.5" y="50" width="227.68" height="90" as="geometry" />
        </mxCell>
        <mxCell id="mD9Tr-Q8xh2cB8FxRo_p-74" value="" style="html=1;strokeColor=none;resizeWidth=1;resizeHeight=1;fillColor=none;part=1;connectable=0;allowArrows=0;deletable=0;whiteSpace=wrap;" parent="mD9Tr-Q8xh2cB8FxRo_p-73" vertex="1">
          <mxGeometry width="227.68" height="63.00000000000001" relative="1" as="geometry">
            <mxPoint y="30" as="offset" />
          </mxGeometry>
        </mxCell>
        <mxCell id="mD9Tr-Q8xh2cB8FxRo_p-75" value="salesRouter.js" style="html=1;whiteSpace=wrap;" parent="mD9Tr-Q8xh2cB8FxRo_p-73" vertex="1">
          <mxGeometry x="43.011515151515596" y="45" width="141.66666666666666" height="29.77" as="geometry" />
        </mxCell>
        <mxCell id="mD9Tr-Q8xh2cB8FxRo_p-76" value="test" style="shape=folder;fontStyle=1;tabWidth=110;tabHeight=30;tabPosition=left;html=1;boundedLbl=1;labelInHeader=1;container=1;collapsible=0;whiteSpace=wrap;" parent="mD9Tr-Q8xh2cB8FxRo_p-68" vertex="1">
          <mxGeometry x="11.5" y="150" width="130" height="160" as="geometry" />
        </mxCell>
        <mxCell id="mD9Tr-Q8xh2cB8FxRo_p-77" value="" style="html=1;strokeColor=none;resizeWidth=1;resizeHeight=1;fillColor=none;part=1;connectable=0;allowArrows=0;deletable=0;whiteSpace=wrap;" parent="mD9Tr-Q8xh2cB8FxRo_p-76" vertex="1">
          <mxGeometry width="130" height="112.00000000000001" relative="1" as="geometry">
            <mxPoint y="30" as="offset" />
          </mxGeometry>
        </mxCell>
        <mxCell id="mD9Tr-Q8xh2cB8FxRo_p-78" value="salesRouter.test.js" style="html=1;whiteSpace=wrap;" parent="mD9Tr-Q8xh2cB8FxRo_p-76" vertex="1">
          <mxGeometry x="6.880000000000109" y="40" width="116.25" height="29.77" as="geometry" />
        </mxCell>
        <mxCell id="mD9Tr-Q8xh2cB8FxRo_p-79" value="setupTests.js" style="html=1;whiteSpace=wrap;" parent="mD9Tr-Q8xh2cB8FxRo_p-76" vertex="1">
          <mxGeometry x="6.880000000000109" y="100" width="116.25" height="29.77" as="geometry" />
        </mxCell>
        <mxCell id="mD9Tr-Q8xh2cB8FxRo_p-80" value="" style="endArrow=classic;html=1;rounded=0;fontSize=12;startSize=8;endSize=8;curved=1;entryX=0.5;entryY=0;entryDx=0;entryDy=0;exitX=0.5;exitY=1;exitDx=0;exitDy=0;" parent="mD9Tr-Q8xh2cB8FxRo_p-76" source="mD9Tr-Q8xh2cB8FxRo_p-78" target="mD9Tr-Q8xh2cB8FxRo_p-79" edge="1">
          <mxGeometry width="50" height="50" relative="1" as="geometry">
            <mxPoint x="-280" y="190" as="sourcePoint" />
            <mxPoint x="-230" y="140" as="targetPoint" />
          </mxGeometry>
        </mxCell>
        <mxCell id="mD9Tr-Q8xh2cB8FxRo_p-81" value="app.js" style="html=1;whiteSpace=wrap;" parent="mD9Tr-Q8xh2cB8FxRo_p-68" vertex="1">
          <mxGeometry x="181.5" y="180" width="141.66666666666666" height="30" as="geometry" />
        </mxCell>
        <mxCell id="mD9Tr-Q8xh2cB8FxRo_p-82" value="utils" style="shape=folder;fontStyle=1;tabWidth=110;tabHeight=30;tabPosition=left;html=1;boundedLbl=1;labelInHeader=1;container=1;collapsible=0;whiteSpace=wrap;" parent="mD9Tr-Q8xh2cB8FxRo_p-68" vertex="1">
          <mxGeometry x="196.5" y="250" width="160" height="195" as="geometry" />
        </mxCell>
        <mxCell id="mD9Tr-Q8xh2cB8FxRo_p-83" value="" style="html=1;strokeColor=none;resizeWidth=1;resizeHeight=1;fillColor=none;part=1;connectable=0;allowArrows=0;deletable=0;whiteSpace=wrap;" parent="mD9Tr-Q8xh2cB8FxRo_p-82" vertex="1">
          <mxGeometry width="160" height="136.50000000000003" relative="1" as="geometry">
            <mxPoint y="30" as="offset" />
          </mxGeometry>
        </mxCell>
        <mxCell id="mD9Tr-Q8xh2cB8FxRo_p-84" value="logger.js" style="html=1;whiteSpace=wrap;" parent="mD9Tr-Q8xh2cB8FxRo_p-82" vertex="1">
          <mxGeometry x="9.170000000000073" y="45" width="141.66666666666666" height="30" as="geometry" />
        </mxCell>
        <mxCell id="mD9Tr-Q8xh2cB8FxRo_p-85" value="redisClient.js" style="html=1;whiteSpace=wrap;" parent="mD9Tr-Q8xh2cB8FxRo_p-82" vertex="1">
          <mxGeometry x="9.170000000000073" y="95" width="141.66666666666666" height="30" as="geometry" />
        </mxCell>
        <mxCell id="mD9Tr-Q8xh2cB8FxRo_p-86" value="authentication.js" style="html=1;whiteSpace=wrap;" parent="mD9Tr-Q8xh2cB8FxRo_p-82" vertex="1">
          <mxGeometry x="9.170000000000073" y="140" width="141.66666666666666" height="30" as="geometry" />
        </mxCell>
        <mxCell id="mD9Tr-Q8xh2cB8FxRo_p-87" value="initDb.js" style="html=1;whiteSpace=wrap;" parent="mD9Tr-Q8xh2cB8FxRo_p-68" vertex="1">
          <mxGeometry x="391.5" y="180" width="141.66666666666666" height="30" as="geometry" />
        </mxCell>
        <mxCell id="mD9Tr-Q8xh2cB8FxRo_p-88" value="models" style="shape=folder;fontStyle=1;tabWidth=110;tabHeight=30;tabPosition=left;html=1;boundedLbl=1;labelInHeader=1;container=1;collapsible=0;whiteSpace=wrap;" parent="mD9Tr-Q8xh2cB8FxRo_p-68" vertex="1">
          <mxGeometry x="591.5" y="45" width="227.68" height="225" as="geometry" />
        </mxCell>
        <mxCell id="mD9Tr-Q8xh2cB8FxRo_p-89" value="" style="html=1;strokeColor=none;resizeWidth=1;resizeHeight=1;fillColor=none;part=1;connectable=0;allowArrows=0;deletable=0;whiteSpace=wrap;" parent="mD9Tr-Q8xh2cB8FxRo_p-88" vertex="1">
          <mxGeometry width="227.68" height="157.50000000000006" relative="1" as="geometry">
            <mxPoint y="30" as="offset" />
          </mxGeometry>
        </mxCell>
        <mxCell id="mD9Tr-Q8xh2cB8FxRo_p-90" value="Store.js" style="html=1;whiteSpace=wrap;" parent="mD9Tr-Q8xh2cB8FxRo_p-88" vertex="1">
          <mxGeometry x="43.00227272727261" y="44.351493632453185" width="141.66666666666666" height="35.422113519439996" as="geometry" />
        </mxCell>
        <mxCell id="mD9Tr-Q8xh2cB8FxRo_p-91" value="StoreSale.js" style="html=1;whiteSpace=wrap;" parent="mD9Tr-Q8xh2cB8FxRo_p-88" vertex="1">
          <mxGeometry x="43.01000000000022" y="94.78999999999996" width="141.66666666666666" height="35.422113519439996" as="geometry" />
        </mxCell>
        <mxCell id="mD9Tr-Q8xh2cB8FxRo_p-93" value="" style="endArrow=classic;html=1;rounded=0;entryX=0;entryY=0.5;entryDx=0;entryDy=0;exitX=1;exitY=0.5;exitDx=0;exitDy=0;" parent="mD9Tr-Q8xh2cB8FxRo_p-68" source="mD9Tr-Q8xh2cB8FxRo_p-75" target="mD9Tr-Q8xh2cB8FxRo_p-72" edge="1">
          <mxGeometry width="50" height="50" relative="1" as="geometry">
            <mxPoint x="471.5" y="-675" as="sourcePoint" />
            <mxPoint x="521.5" y="-725" as="targetPoint" />
          </mxGeometry>
        </mxCell>
        <mxCell id="mD9Tr-Q8xh2cB8FxRo_p-94" value="" style="endArrow=classic;html=1;rounded=0;entryX=0;entryY=0;entryDx=0;entryDy=85;entryPerimeter=0;exitX=1;exitY=0.5;exitDx=0;exitDy=0;" parent="mD9Tr-Q8xh2cB8FxRo_p-68" source="mD9Tr-Q8xh2cB8FxRo_p-72" target="mD9Tr-Q8xh2cB8FxRo_p-88" edge="1">
          <mxGeometry width="50" height="50" relative="1" as="geometry">
            <mxPoint x="211.5" y="-305" as="sourcePoint" />
            <mxPoint x="261.5" y="-355" as="targetPoint" />
          </mxGeometry>
        </mxCell>
        <mxCell id="mD9Tr-Q8xh2cB8FxRo_p-95" value="" style="endArrow=classic;html=1;rounded=0;entryX=0.5;entryY=1;entryDx=0;entryDy=0;exitX=0.25;exitY=0;exitDx=0;exitDy=0;" parent="mD9Tr-Q8xh2cB8FxRo_p-68" source="mD9Tr-Q8xh2cB8FxRo_p-81" target="mD9Tr-Q8xh2cB8FxRo_p-75" edge="1">
          <mxGeometry width="50" height="50" relative="1" as="geometry">
            <mxPoint x="191.5" y="-375" as="sourcePoint" />
            <mxPoint x="241.5" y="-425" as="targetPoint" />
          </mxGeometry>
        </mxCell>
        <mxCell id="mD9Tr-Q8xh2cB8FxRo_p-96" value="" style="endArrow=classic;html=1;rounded=0;entryX=0;entryY=0;entryDx=55;entryDy=0;entryPerimeter=0;exitX=0.5;exitY=1;exitDx=0;exitDy=0;" parent="mD9Tr-Q8xh2cB8FxRo_p-68" source="mD9Tr-Q8xh2cB8FxRo_p-81" target="mD9Tr-Q8xh2cB8FxRo_p-82" edge="1">
          <mxGeometry width="50" height="50" relative="1" as="geometry">
            <mxPoint x="111.5" y="-225" as="sourcePoint" />
            <mxPoint x="161.5" y="-275" as="targetPoint" />
          </mxGeometry>
        </mxCell>
        <mxCell id="mD9Tr-Q8xh2cB8FxRo_p-97" value="" style="endArrow=classic;html=1;rounded=0;entryX=0;entryY=0.5;entryDx=0;entryDy=0;exitX=1;exitY=0.5;exitDx=0;exitDy=0;" parent="mD9Tr-Q8xh2cB8FxRo_p-68" source="mD9Tr-Q8xh2cB8FxRo_p-81" target="mD9Tr-Q8xh2cB8FxRo_p-87" edge="1">
          <mxGeometry width="50" height="50" relative="1" as="geometry">
            <mxPoint x="151.5" y="-245" as="sourcePoint" />
            <mxPoint x="201.5" y="-295" as="targetPoint" />
          </mxGeometry>
        </mxCell>
        <mxCell id="mD9Tr-Q8xh2cB8FxRo_p-38" value="stocks" style="shape=folder;fontStyle=1;tabWidth=110;tabHeight=30;tabPosition=left;html=1;boundedLbl=1;labelInHeader=1;container=1;collapsible=0;whiteSpace=wrap;" parent="qvupkEEIyL3yOIonO_8t-2" vertex="1">
          <mxGeometry x="2830" y="600" width="891.5" height="505" as="geometry" />
        </mxCell>
        <mxCell id="mD9Tr-Q8xh2cB8FxRo_p-39" value="" style="html=1;strokeColor=none;resizeWidth=1;resizeHeight=1;fillColor=none;part=1;connectable=0;allowArrows=0;deletable=0;whiteSpace=wrap;" parent="mD9Tr-Q8xh2cB8FxRo_p-38" vertex="1">
          <mxGeometry width="891.4999999999999" height="318.7295081967213" relative="1" as="geometry">
            <mxPoint y="30" as="offset" />
          </mxGeometry>
        </mxCell>
        <mxCell id="mD9Tr-Q8xh2cB8FxRo_p-40" value="controllers" style="shape=folder;fontStyle=1;tabWidth=110;tabHeight=30;tabPosition=left;html=1;boundedLbl=1;labelInHeader=1;container=1;collapsible=0;whiteSpace=wrap;" parent="mD9Tr-Q8xh2cB8FxRo_p-38" vertex="1">
          <mxGeometry x="311.5" y="45" width="190" height="100" as="geometry" />
        </mxCell>
        <mxCell id="mD9Tr-Q8xh2cB8FxRo_p-41" value="" style="html=1;strokeColor=none;resizeWidth=1;resizeHeight=1;fillColor=none;part=1;connectable=0;allowArrows=0;deletable=0;whiteSpace=wrap;" parent="mD9Tr-Q8xh2cB8FxRo_p-40" vertex="1">
          <mxGeometry width="190" height="70.00000000000001" relative="1" as="geometry">
            <mxPoint y="30" as="offset" />
          </mxGeometry>
        </mxCell>
        <mxCell id="mD9Tr-Q8xh2cB8FxRo_p-42" value="stocksController.js" style="html=1;whiteSpace=wrap;" parent="mD9Tr-Q8xh2cB8FxRo_p-40" vertex="1">
          <mxGeometry x="24.165151515151592" y="40" width="141.66666666666666" height="30" as="geometry" />
        </mxCell>
        <mxCell id="mD9Tr-Q8xh2cB8FxRo_p-43" value="routes" style="shape=folder;fontStyle=1;tabWidth=110;tabHeight=30;tabPosition=left;html=1;boundedLbl=1;labelInHeader=1;container=1;collapsible=0;whiteSpace=wrap;" parent="mD9Tr-Q8xh2cB8FxRo_p-38" vertex="1">
          <mxGeometry x="11.5" y="50" width="227.68" height="90" as="geometry" />
        </mxCell>
        <mxCell id="mD9Tr-Q8xh2cB8FxRo_p-44" value="" style="html=1;strokeColor=none;resizeWidth=1;resizeHeight=1;fillColor=none;part=1;connectable=0;allowArrows=0;deletable=0;whiteSpace=wrap;" parent="mD9Tr-Q8xh2cB8FxRo_p-43" vertex="1">
          <mxGeometry width="227.68" height="63.00000000000001" relative="1" as="geometry">
            <mxPoint y="30" as="offset" />
          </mxGeometry>
        </mxCell>
        <mxCell id="mD9Tr-Q8xh2cB8FxRo_p-45" value="stocksRouter.js" style="html=1;whiteSpace=wrap;" parent="mD9Tr-Q8xh2cB8FxRo_p-43" vertex="1">
          <mxGeometry x="43.011515151515596" y="45" width="141.66666666666666" height="29.77" as="geometry" />
        </mxCell>
        <mxCell id="mD9Tr-Q8xh2cB8FxRo_p-46" value="test" style="shape=folder;fontStyle=1;tabWidth=110;tabHeight=30;tabPosition=left;html=1;boundedLbl=1;labelInHeader=1;container=1;collapsible=0;whiteSpace=wrap;" parent="mD9Tr-Q8xh2cB8FxRo_p-38" vertex="1">
          <mxGeometry x="11.5" y="150" width="130" height="160" as="geometry" />
        </mxCell>
        <mxCell id="mD9Tr-Q8xh2cB8FxRo_p-47" value="" style="html=1;strokeColor=none;resizeWidth=1;resizeHeight=1;fillColor=none;part=1;connectable=0;allowArrows=0;deletable=0;whiteSpace=wrap;" parent="mD9Tr-Q8xh2cB8FxRo_p-46" vertex="1">
          <mxGeometry width="130" height="112.00000000000001" relative="1" as="geometry">
            <mxPoint y="30" as="offset" />
          </mxGeometry>
        </mxCell>
        <mxCell id="mD9Tr-Q8xh2cB8FxRo_p-48" value="stocksRouter.test.js" style="html=1;whiteSpace=wrap;" parent="mD9Tr-Q8xh2cB8FxRo_p-46" vertex="1">
          <mxGeometry x="6.880000000000109" y="40" width="116.25" height="29.77" as="geometry" />
        </mxCell>
        <mxCell id="mD9Tr-Q8xh2cB8FxRo_p-49" value="setupTests.js" style="html=1;whiteSpace=wrap;" parent="mD9Tr-Q8xh2cB8FxRo_p-46" vertex="1">
          <mxGeometry x="6.880000000000109" y="100" width="116.25" height="29.77" as="geometry" />
        </mxCell>
        <mxCell id="mD9Tr-Q8xh2cB8FxRo_p-50" value="" style="endArrow=classic;html=1;rounded=0;fontSize=12;startSize=8;endSize=8;curved=1;entryX=0.5;entryY=0;entryDx=0;entryDy=0;exitX=0.5;exitY=1;exitDx=0;exitDy=0;" parent="mD9Tr-Q8xh2cB8FxRo_p-46" source="mD9Tr-Q8xh2cB8FxRo_p-48" target="mD9Tr-Q8xh2cB8FxRo_p-49" edge="1">
          <mxGeometry width="50" height="50" relative="1" as="geometry">
            <mxPoint x="-280" y="190" as="sourcePoint" />
            <mxPoint x="-230" y="140" as="targetPoint" />
          </mxGeometry>
        </mxCell>
        <mxCell id="mD9Tr-Q8xh2cB8FxRo_p-51" value="app.js" style="html=1;whiteSpace=wrap;" parent="mD9Tr-Q8xh2cB8FxRo_p-38" vertex="1">
          <mxGeometry x="181.5" y="180" width="141.66666666666666" height="30" as="geometry" />
        </mxCell>
        <mxCell id="mD9Tr-Q8xh2cB8FxRo_p-52" value="utils" style="shape=folder;fontStyle=1;tabWidth=110;tabHeight=30;tabPosition=left;html=1;boundedLbl=1;labelInHeader=1;container=1;collapsible=0;whiteSpace=wrap;" parent="mD9Tr-Q8xh2cB8FxRo_p-38" vertex="1">
          <mxGeometry x="196.5" y="250" width="160" height="195" as="geometry" />
        </mxCell>
        <mxCell id="mD9Tr-Q8xh2cB8FxRo_p-53" value="" style="html=1;strokeColor=none;resizeWidth=1;resizeHeight=1;fillColor=none;part=1;connectable=0;allowArrows=0;deletable=0;whiteSpace=wrap;" parent="mD9Tr-Q8xh2cB8FxRo_p-52" vertex="1">
          <mxGeometry width="160" height="136.50000000000003" relative="1" as="geometry">
            <mxPoint y="30" as="offset" />
          </mxGeometry>
        </mxCell>
        <mxCell id="mD9Tr-Q8xh2cB8FxRo_p-54" value="logger.js" style="html=1;whiteSpace=wrap;" parent="mD9Tr-Q8xh2cB8FxRo_p-52" vertex="1">
          <mxGeometry x="9.170000000000073" y="45" width="141.66666666666666" height="30" as="geometry" />
        </mxCell>
        <mxCell id="mD9Tr-Q8xh2cB8FxRo_p-55" value="redisClient.js" style="html=1;whiteSpace=wrap;" parent="mD9Tr-Q8xh2cB8FxRo_p-52" vertex="1">
          <mxGeometry x="9.170000000000073" y="95" width="141.66666666666666" height="30" as="geometry" />
        </mxCell>
        <mxCell id="mD9Tr-Q8xh2cB8FxRo_p-56" value="authentication.js" style="html=1;whiteSpace=wrap;" parent="mD9Tr-Q8xh2cB8FxRo_p-52" vertex="1">
          <mxGeometry x="9.170000000000073" y="140" width="141.66666666666666" height="30" as="geometry" />
        </mxCell>
        <mxCell id="mD9Tr-Q8xh2cB8FxRo_p-57" value="initDb.js" style="html=1;whiteSpace=wrap;" parent="mD9Tr-Q8xh2cB8FxRo_p-38" vertex="1">
          <mxGeometry x="391.5" y="180" width="141.66666666666666" height="30" as="geometry" />
        </mxCell>
        <mxCell id="mD9Tr-Q8xh2cB8FxRo_p-58" value="models" style="shape=folder;fontStyle=1;tabWidth=110;tabHeight=30;tabPosition=left;html=1;boundedLbl=1;labelInHeader=1;container=1;collapsible=0;whiteSpace=wrap;" parent="mD9Tr-Q8xh2cB8FxRo_p-38" vertex="1">
          <mxGeometry x="591.5" y="45" width="227.68" height="225" as="geometry" />
        </mxCell>
        <mxCell id="mD9Tr-Q8xh2cB8FxRo_p-59" value="" style="html=1;strokeColor=none;resizeWidth=1;resizeHeight=1;fillColor=none;part=1;connectable=0;allowArrows=0;deletable=0;whiteSpace=wrap;" parent="mD9Tr-Q8xh2cB8FxRo_p-58" vertex="1">
          <mxGeometry width="227.68" height="157.50000000000006" relative="1" as="geometry">
            <mxPoint y="30" as="offset" />
          </mxGeometry>
        </mxCell>
        <mxCell id="mD9Tr-Q8xh2cB8FxRo_p-60" value="Store.js" style="html=1;whiteSpace=wrap;" parent="mD9Tr-Q8xh2cB8FxRo_p-58" vertex="1">
          <mxGeometry x="43.00227272727261" y="44.351493632453185" width="141.66666666666666" height="35.422113519439996" as="geometry" />
        </mxCell>
        <mxCell id="mD9Tr-Q8xh2cB8FxRo_p-67" value="StoreInventory.js" style="html=1;whiteSpace=wrap;" parent="mD9Tr-Q8xh2cB8FxRo_p-58" vertex="1">
          <mxGeometry x="43.01000000000022" y="94.78999999999996" width="141.66666666666666" height="35.422113519439996" as="geometry" />
        </mxCell>
        <mxCell id="mD9Tr-Q8xh2cB8FxRo_p-61" value="Cart.js" style="html=1;whiteSpace=wrap;" parent="mD9Tr-Q8xh2cB8FxRo_p-58" vertex="1">
          <mxGeometry x="43.01227272727283" y="145" width="141.66666666666666" height="35.422113519439996" as="geometry" />
        </mxCell>
        <mxCell id="mD9Tr-Q8xh2cB8FxRo_p-62" value="" style="endArrow=classic;html=1;rounded=0;entryX=0;entryY=0.5;entryDx=0;entryDy=0;exitX=1;exitY=0.5;exitDx=0;exitDy=0;" parent="mD9Tr-Q8xh2cB8FxRo_p-38" source="mD9Tr-Q8xh2cB8FxRo_p-45" target="mD9Tr-Q8xh2cB8FxRo_p-42" edge="1">
          <mxGeometry width="50" height="50" relative="1" as="geometry">
            <mxPoint x="471.5" y="-675" as="sourcePoint" />
            <mxPoint x="521.5" y="-725" as="targetPoint" />
          </mxGeometry>
        </mxCell>
        <mxCell id="mD9Tr-Q8xh2cB8FxRo_p-63" value="" style="endArrow=classic;html=1;rounded=0;entryX=0;entryY=0;entryDx=0;entryDy=85;entryPerimeter=0;exitX=1;exitY=0.5;exitDx=0;exitDy=0;" parent="mD9Tr-Q8xh2cB8FxRo_p-38" source="mD9Tr-Q8xh2cB8FxRo_p-42" target="mD9Tr-Q8xh2cB8FxRo_p-58" edge="1">
          <mxGeometry width="50" height="50" relative="1" as="geometry">
            <mxPoint x="211.5" y="-305" as="sourcePoint" />
            <mxPoint x="261.5" y="-355" as="targetPoint" />
          </mxGeometry>
        </mxCell>
        <mxCell id="mD9Tr-Q8xh2cB8FxRo_p-64" value="" style="endArrow=classic;html=1;rounded=0;entryX=0.5;entryY=1;entryDx=0;entryDy=0;exitX=0.25;exitY=0;exitDx=0;exitDy=0;" parent="mD9Tr-Q8xh2cB8FxRo_p-38" source="mD9Tr-Q8xh2cB8FxRo_p-51" target="mD9Tr-Q8xh2cB8FxRo_p-45" edge="1">
          <mxGeometry width="50" height="50" relative="1" as="geometry">
            <mxPoint x="191.5" y="-375" as="sourcePoint" />
            <mxPoint x="241.5" y="-425" as="targetPoint" />
          </mxGeometry>
        </mxCell>
        <mxCell id="mD9Tr-Q8xh2cB8FxRo_p-65" value="" style="endArrow=classic;html=1;rounded=0;entryX=0;entryY=0;entryDx=55;entryDy=0;entryPerimeter=0;exitX=0.5;exitY=1;exitDx=0;exitDy=0;" parent="mD9Tr-Q8xh2cB8FxRo_p-38" source="mD9Tr-Q8xh2cB8FxRo_p-51" target="mD9Tr-Q8xh2cB8FxRo_p-52" edge="1">
          <mxGeometry width="50" height="50" relative="1" as="geometry">
            <mxPoint x="111.5" y="-225" as="sourcePoint" />
            <mxPoint x="161.5" y="-275" as="targetPoint" />
          </mxGeometry>
        </mxCell>
        <mxCell id="mD9Tr-Q8xh2cB8FxRo_p-66" value="" style="endArrow=classic;html=1;rounded=0;entryX=0;entryY=0.5;entryDx=0;entryDy=0;exitX=1;exitY=0.5;exitDx=0;exitDy=0;" parent="mD9Tr-Q8xh2cB8FxRo_p-38" source="mD9Tr-Q8xh2cB8FxRo_p-51" target="mD9Tr-Q8xh2cB8FxRo_p-57" edge="1">
          <mxGeometry width="50" height="50" relative="1" as="geometry">
            <mxPoint x="151.5" y="-245" as="sourcePoint" />
            <mxPoint x="201.5" y="-295" as="targetPoint" />
          </mxGeometry>
        </mxCell>
        <mxCell id="QuwefU2rE0U9ZAtFTuR1-13" value="k6" style="shape=folder;fontStyle=1;tabWidth=110;tabHeight=30;tabPosition=left;html=1;boundedLbl=1;labelInHeader=1;container=1;collapsible=0;whiteSpace=wrap;" parent="mD9Tr-Q8xh2cB8FxRo_p-38" vertex="1">
          <mxGeometry x="390" y="250" width="160" height="160" as="geometry" />
        </mxCell>
        <mxCell id="QuwefU2rE0U9ZAtFTuR1-14" value="" style="html=1;strokeColor=none;resizeWidth=1;resizeHeight=1;fillColor=none;part=1;connectable=0;allowArrows=0;deletable=0;whiteSpace=wrap;" parent="QuwefU2rE0U9ZAtFTuR1-13" vertex="1">
          <mxGeometry width="160" height="112.00000000000001" relative="1" as="geometry">
            <mxPoint y="30" as="offset" />
          </mxGeometry>
        </mxCell>
        <mxCell id="QuwefU2rE0U9ZAtFTuR1-15" value="get_reports.js" style="html=1;whiteSpace=wrap;" parent="QuwefU2rE0U9ZAtFTuR1-13" vertex="1">
          <mxGeometry x="9.170000000000073" y="40" width="141.66666666666666" height="30" as="geometry" />
        </mxCell>
        <mxCell id="QuwefU2rE0U9ZAtFTuR1-16" value="get_stocks.js" style="html=1;whiteSpace=wrap;" parent="QuwefU2rE0U9ZAtFTuR1-13" vertex="1">
          <mxGeometry x="9.170000000000073" y="85" width="141.66666666666666" height="30" as="geometry" />
        </mxCell>
        <mxCell id="QuwefU2rE0U9ZAtFTuR1-17" value="put_product.js" style="html=1;whiteSpace=wrap;" parent="QuwefU2rE0U9ZAtFTuR1-13" vertex="1">
          <mxGeometry x="9.169999999999987" y="125" width="141.66666666666666" height="30" as="geometry" />
        </mxCell>
        <mxCell id="sSLa41Jm4dLuRAajcqVf-61" value="audit" style="shape=folder;fontStyle=1;tabWidth=110;tabHeight=30;tabPosition=left;html=1;boundedLbl=1;labelInHeader=1;container=1;collapsible=0;whiteSpace=wrap;" vertex="1" parent="qvupkEEIyL3yOIonO_8t-2">
          <mxGeometry x="2830" y="1130" width="891.5" height="505" as="geometry" />
        </mxCell>
        <mxCell id="sSLa41Jm4dLuRAajcqVf-62" value="" style="html=1;strokeColor=none;resizeWidth=1;resizeHeight=1;fillColor=none;part=1;connectable=0;allowArrows=0;deletable=0;whiteSpace=wrap;" vertex="1" parent="sSLa41Jm4dLuRAajcqVf-61">
          <mxGeometry width="891.4999999999999" height="318.7295081967213" relative="1" as="geometry">
            <mxPoint y="30" as="offset" />
          </mxGeometry>
        </mxCell>
        <mxCell id="sSLa41Jm4dLuRAajcqVf-63" value="controllers" style="shape=folder;fontStyle=1;tabWidth=110;tabHeight=30;tabPosition=left;html=1;boundedLbl=1;labelInHeader=1;container=1;collapsible=0;whiteSpace=wrap;" vertex="1" parent="sSLa41Jm4dLuRAajcqVf-61">
          <mxGeometry x="311.5" y="45" width="190" height="100" as="geometry" />
        </mxCell>
        <mxCell id="sSLa41Jm4dLuRAajcqVf-64" value="" style="html=1;strokeColor=none;resizeWidth=1;resizeHeight=1;fillColor=none;part=1;connectable=0;allowArrows=0;deletable=0;whiteSpace=wrap;" vertex="1" parent="sSLa41Jm4dLuRAajcqVf-63">
          <mxGeometry width="190" height="70.00000000000001" relative="1" as="geometry">
            <mxPoint y="30" as="offset" />
          </mxGeometry>
        </mxCell>
        <mxCell id="sSLa41Jm4dLuRAajcqVf-65" value="auditController.js" style="html=1;whiteSpace=wrap;" vertex="1" parent="sSLa41Jm4dLuRAajcqVf-63">
          <mxGeometry x="10" y="40" width="170" height="30" as="geometry" />
        </mxCell>
        <mxCell id="sSLa41Jm4dLuRAajcqVf-66" value="routes" style="shape=folder;fontStyle=1;tabWidth=110;tabHeight=30;tabPosition=left;html=1;boundedLbl=1;labelInHeader=1;container=1;collapsible=0;whiteSpace=wrap;" vertex="1" parent="sSLa41Jm4dLuRAajcqVf-61">
          <mxGeometry x="11.5" y="50" width="227.68" height="90" as="geometry" />
        </mxCell>
        <mxCell id="sSLa41Jm4dLuRAajcqVf-67" value="" style="html=1;strokeColor=none;resizeWidth=1;resizeHeight=1;fillColor=none;part=1;connectable=0;allowArrows=0;deletable=0;whiteSpace=wrap;" vertex="1" parent="sSLa41Jm4dLuRAajcqVf-66">
          <mxGeometry width="227.68" height="63.00000000000001" relative="1" as="geometry">
            <mxPoint y="30" as="offset" />
          </mxGeometry>
        </mxCell>
        <mxCell id="sSLa41Jm4dLuRAajcqVf-68" value="auditRouter.js" style="html=1;whiteSpace=wrap;" vertex="1" parent="sSLa41Jm4dLuRAajcqVf-66">
          <mxGeometry x="30" y="45" width="154.68" height="29.77" as="geometry" />
        </mxCell>
        <mxCell id="sSLa41Jm4dLuRAajcqVf-69" value="test" style="shape=folder;fontStyle=1;tabWidth=110;tabHeight=30;tabPosition=left;html=1;boundedLbl=1;labelInHeader=1;container=1;collapsible=0;whiteSpace=wrap;" vertex="1" parent="sSLa41Jm4dLuRAajcqVf-61">
          <mxGeometry x="11.5" y="150" width="130" height="160" as="geometry" />
        </mxCell>
        <mxCell id="sSLa41Jm4dLuRAajcqVf-70" value="" style="html=1;strokeColor=none;resizeWidth=1;resizeHeight=1;fillColor=none;part=1;connectable=0;allowArrows=0;deletable=0;whiteSpace=wrap;" vertex="1" parent="sSLa41Jm4dLuRAajcqVf-69">
          <mxGeometry width="130" height="112.00000000000001" relative="1" as="geometry">
            <mxPoint y="30" as="offset" />
          </mxGeometry>
        </mxCell>
        <mxCell id="sSLa41Jm4dLuRAajcqVf-71" value="auditRouter.test.js" style="html=1;whiteSpace=wrap;" vertex="1" parent="sSLa41Jm4dLuRAajcqVf-69">
          <mxGeometry x="6.880000000000109" y="40" width="116.25" height="29.77" as="geometry" />
        </mxCell>
        <mxCell id="sSLa41Jm4dLuRAajcqVf-72" value="setupTests.js" style="html=1;whiteSpace=wrap;" vertex="1" parent="sSLa41Jm4dLuRAajcqVf-69">
          <mxGeometry x="6.880000000000109" y="100" width="116.25" height="29.77" as="geometry" />
        </mxCell>
        <mxCell id="sSLa41Jm4dLuRAajcqVf-73" value="" style="endArrow=classic;html=1;rounded=0;fontSize=12;startSize=8;endSize=8;curved=1;entryX=0.5;entryY=0;entryDx=0;entryDy=0;exitX=0.5;exitY=1;exitDx=0;exitDy=0;" edge="1" parent="sSLa41Jm4dLuRAajcqVf-69" source="sSLa41Jm4dLuRAajcqVf-71" target="sSLa41Jm4dLuRAajcqVf-72">
          <mxGeometry width="50" height="50" relative="1" as="geometry">
            <mxPoint x="-280" y="190" as="sourcePoint" />
            <mxPoint x="-230" y="140" as="targetPoint" />
          </mxGeometry>
        </mxCell>
        <mxCell id="sSLa41Jm4dLuRAajcqVf-74" value="app.js" style="html=1;whiteSpace=wrap;" vertex="1" parent="sSLa41Jm4dLuRAajcqVf-61">
          <mxGeometry x="181.5" y="180" width="141.66666666666666" height="30" as="geometry" />
        </mxCell>
        <mxCell id="sSLa41Jm4dLuRAajcqVf-75" value="utils" style="shape=folder;fontStyle=1;tabWidth=110;tabHeight=30;tabPosition=left;html=1;boundedLbl=1;labelInHeader=1;container=1;collapsible=0;whiteSpace=wrap;" vertex="1" parent="sSLa41Jm4dLuRAajcqVf-61">
          <mxGeometry x="196.5" y="250" width="160" height="220" as="geometry" />
        </mxCell>
        <mxCell id="sSLa41Jm4dLuRAajcqVf-76" value="" style="html=1;strokeColor=none;resizeWidth=1;resizeHeight=1;fillColor=none;part=1;connectable=0;allowArrows=0;deletable=0;whiteSpace=wrap;" vertex="1" parent="sSLa41Jm4dLuRAajcqVf-75">
          <mxGeometry width="160" height="154.00000000000003" relative="1" as="geometry">
            <mxPoint y="30" as="offset" />
          </mxGeometry>
        </mxCell>
        <mxCell id="sSLa41Jm4dLuRAajcqVf-77" value="logger.js" style="html=1;whiteSpace=wrap;" vertex="1" parent="sSLa41Jm4dLuRAajcqVf-75">
          <mxGeometry x="9.170000000000073" y="41.76923076923077" width="141.66666666666666" height="33.84615384615385" as="geometry" />
        </mxCell>
        <mxCell id="sSLa41Jm4dLuRAajcqVf-78" value="redisClient.js" style="html=1;whiteSpace=wrap;" vertex="1" parent="sSLa41Jm4dLuRAajcqVf-75">
          <mxGeometry x="9.170000000000073" y="91.17948717948718" width="141.66666666666666" height="33.84615384615385" as="geometry" />
        </mxCell>
        <mxCell id="sSLa41Jm4dLuRAajcqVf-79" value="authentication.js" style="html=1;whiteSpace=wrap;" vertex="1" parent="sSLa41Jm4dLuRAajcqVf-75">
          <mxGeometry x="9.170000000000073" y="140.94871794871796" width="141.66666666666666" height="33.84615384615385" as="geometry" />
        </mxCell>
        <mxCell id="sSLa41Jm4dLuRAajcqVf-133" value="consumer.js" style="html=1;whiteSpace=wrap;" vertex="1" parent="sSLa41Jm4dLuRAajcqVf-75">
          <mxGeometry x="9.170000000000073" y="180" width="141.66666666666666" height="33.84615384615385" as="geometry" />
        </mxCell>
        <mxCell id="sSLa41Jm4dLuRAajcqVf-80" value="models" style="shape=folder;fontStyle=1;tabWidth=110;tabHeight=30;tabPosition=left;html=1;boundedLbl=1;labelInHeader=1;container=1;collapsible=0;whiteSpace=wrap;" vertex="1" parent="sSLa41Jm4dLuRAajcqVf-61">
          <mxGeometry x="591.5" y="45" width="227.68" height="125" as="geometry" />
        </mxCell>
        <mxCell id="sSLa41Jm4dLuRAajcqVf-81" value="" style="html=1;strokeColor=none;resizeWidth=1;resizeHeight=1;fillColor=none;part=1;connectable=0;allowArrows=0;deletable=0;whiteSpace=wrap;" vertex="1" parent="sSLa41Jm4dLuRAajcqVf-80">
          <mxGeometry width="227.68" height="87.50000000000003" relative="1" as="geometry">
            <mxPoint y="30" as="offset" />
          </mxGeometry>
        </mxCell>
        <mxCell id="sSLa41Jm4dLuRAajcqVf-82" value="EventLog.js" style="html=1;whiteSpace=wrap;" vertex="1" parent="sSLa41Jm4dLuRAajcqVf-80">
          <mxGeometry x="43.00227272727261" y="59.5814936324532" width="141.66666666666666" height="35.422113519439996" as="geometry" />
        </mxCell>
        <mxCell id="sSLa41Jm4dLuRAajcqVf-83" value="" style="endArrow=classic;html=1;rounded=0;entryX=0;entryY=0.5;entryDx=0;entryDy=0;exitX=1;exitY=0.5;exitDx=0;exitDy=0;" edge="1" parent="sSLa41Jm4dLuRAajcqVf-61" source="sSLa41Jm4dLuRAajcqVf-68" target="sSLa41Jm4dLuRAajcqVf-65">
          <mxGeometry width="50" height="50" relative="1" as="geometry">
            <mxPoint x="471.5" y="-675" as="sourcePoint" />
            <mxPoint x="521.5" y="-725" as="targetPoint" />
          </mxGeometry>
        </mxCell>
        <mxCell id="sSLa41Jm4dLuRAajcqVf-84" value="" style="endArrow=classic;html=1;rounded=0;entryX=0;entryY=0;entryDx=0;entryDy=85;entryPerimeter=0;exitX=1;exitY=0.5;exitDx=0;exitDy=0;" edge="1" parent="sSLa41Jm4dLuRAajcqVf-61" source="sSLa41Jm4dLuRAajcqVf-65" target="sSLa41Jm4dLuRAajcqVf-80">
          <mxGeometry width="50" height="50" relative="1" as="geometry">
            <mxPoint x="211.5" y="-305" as="sourcePoint" />
            <mxPoint x="261.5" y="-355" as="targetPoint" />
          </mxGeometry>
        </mxCell>
        <mxCell id="sSLa41Jm4dLuRAajcqVf-85" value="" style="endArrow=classic;html=1;rounded=0;entryX=0.5;entryY=1;entryDx=0;entryDy=0;exitX=0.25;exitY=0;exitDx=0;exitDy=0;" edge="1" parent="sSLa41Jm4dLuRAajcqVf-61" source="sSLa41Jm4dLuRAajcqVf-74" target="sSLa41Jm4dLuRAajcqVf-68">
          <mxGeometry width="50" height="50" relative="1" as="geometry">
            <mxPoint x="191.5" y="-375" as="sourcePoint" />
            <mxPoint x="241.5" y="-425" as="targetPoint" />
          </mxGeometry>
        </mxCell>
        <mxCell id="sSLa41Jm4dLuRAajcqVf-86" value="" style="endArrow=classic;html=1;rounded=0;entryX=0;entryY=0;entryDx=55;entryDy=0;entryPerimeter=0;exitX=0.5;exitY=1;exitDx=0;exitDy=0;" edge="1" parent="sSLa41Jm4dLuRAajcqVf-61" source="sSLa41Jm4dLuRAajcqVf-74" target="sSLa41Jm4dLuRAajcqVf-75">
          <mxGeometry width="50" height="50" relative="1" as="geometry">
            <mxPoint x="111.5" y="-225" as="sourcePoint" />
            <mxPoint x="161.5" y="-275" as="targetPoint" />
          </mxGeometry>
        </mxCell>
        <mxCell id="sSLa41Jm4dLuRAajcqVf-87" value="metrics" style="shape=folder;fontStyle=1;tabWidth=110;tabHeight=30;tabPosition=left;html=1;boundedLbl=1;labelInHeader=1;container=1;collapsible=0;whiteSpace=wrap;" vertex="1" parent="sSLa41Jm4dLuRAajcqVf-61">
          <mxGeometry x="450" y="210" width="160" height="100" as="geometry" />
        </mxCell>
        <mxCell id="sSLa41Jm4dLuRAajcqVf-88" value="" style="html=1;strokeColor=none;resizeWidth=1;resizeHeight=1;fillColor=none;part=1;connectable=0;allowArrows=0;deletable=0;whiteSpace=wrap;" vertex="1" parent="sSLa41Jm4dLuRAajcqVf-87">
          <mxGeometry width="160" height="70.00000000000001" relative="1" as="geometry">
            <mxPoint y="30" as="offset" />
          </mxGeometry>
        </mxCell>
        <mxCell id="sSLa41Jm4dLuRAajcqVf-89" value="metrics.js" style="html=1;whiteSpace=wrap;" vertex="1" parent="sSLa41Jm4dLuRAajcqVf-87">
          <mxGeometry x="9.170000000000073" y="50" width="141.66666666666666" height="30" as="geometry" />
        </mxCell>
        <mxCell id="sSLa41Jm4dLuRAajcqVf-90" value="" style="endArrow=classic;html=1;rounded=0;entryX=0;entryY=0.5;entryDx=0;entryDy=0;exitX=1;exitY=0.5;exitDx=0;exitDy=0;" edge="1" parent="sSLa41Jm4dLuRAajcqVf-61" source="sSLa41Jm4dLuRAajcqVf-74" target="sSLa41Jm4dLuRAajcqVf-89">
          <mxGeometry width="50" height="50" relative="1" as="geometry">
            <mxPoint x="356.5" y="220" as="sourcePoint" />
            <mxPoint x="482.5" y="210" as="targetPoint" />
          </mxGeometry>
        </mxCell>
        <mxCell id="mD9Tr-Q8xh2cB8FxRo_p-112" value="nginx.conf" style="html=1;whiteSpace=wrap;" parent="qvupkEEIyL3yOIonO_8t-2" vertex="1">
          <mxGeometry x="1650" y="570.0045762711865" width="134.21052631578948" height="41.08474576271186" as="geometry" />
        </mxCell>
        <mxCell id="mD9Tr-Q8xh2cB8FxRo_p-117" value="" style="endArrow=classic;html=1;rounded=0;entryX=0;entryY=0;entryDx=0;entryDy=0;entryPerimeter=0;exitX=1;exitY=0;exitDx=0;exitDy=0;" parent="qvupkEEIyL3yOIonO_8t-2" source="mD9Tr-Q8xh2cB8FxRo_p-112" target="mD9Tr-Q8xh2cB8FxRo_p-38" edge="1">
          <mxGeometry width="50" height="50" relative="1" as="geometry">
            <mxPoint x="1460" y="820" as="sourcePoint" />
            <mxPoint x="1510" y="770" as="targetPoint" />
          </mxGeometry>
        </mxCell>
        <mxCell id="JedbsohMpSSGX24jmu63-1" value="frontend/djangomagasinapp" style="shape=folder;fontStyle=1;tabWidth=110;tabHeight=30;tabPosition=left;html=1;boundedLbl=1;labelInHeader=1;container=1;collapsible=0;whiteSpace=wrap;" parent="qvupkEEIyL3yOIonO_8t-2" vertex="1">
          <mxGeometry x="40" y="859.9989830508474" width="960" height="1198.3050847457628" as="geometry" />
        </mxCell>
        <mxCell id="JedbsohMpSSGX24jmu63-2" value="" style="html=1;strokeColor=none;resizeWidth=1;resizeHeight=1;fillColor=none;part=1;connectable=0;allowArrows=0;deletable=0;whiteSpace=wrap;" parent="JedbsohMpSSGX24jmu63-1" vertex="1">
          <mxGeometry width="960" height="838.8135593220339" relative="1" as="geometry">
            <mxPoint y="30" as="offset" />
          </mxGeometry>
        </mxCell>
        <mxCell id="JedbsohMpSSGX24jmu63-50" value="magasins" style="shape=folder;fontStyle=1;tabWidth=110;tabHeight=30;tabPosition=left;html=1;boundedLbl=1;labelInHeader=1;container=1;collapsible=0;whiteSpace=wrap;" parent="JedbsohMpSSGX24jmu63-1" vertex="1">
          <mxGeometry x="9" y="47.928035372144436" width="930" height="833.6035372144437" as="geometry" />
        </mxCell>
        <mxCell id="JedbsohMpSSGX24jmu63-51" value="" style="html=1;strokeColor=none;resizeWidth=1;resizeHeight=1;fillColor=none;part=1;connectable=0;allowArrows=0;deletable=0;whiteSpace=wrap;" parent="JedbsohMpSSGX24jmu63-50" vertex="1">
          <mxGeometry width="930.0000000000001" height="583.5224760501105" relative="1" as="geometry">
            <mxPoint y="30" as="offset" />
          </mxGeometry>
        </mxCell>
        <mxCell id="JedbsohMpSSGX24jmu63-16" value="templates/magasins" style="shape=folder;fontStyle=1;tabWidth=110;tabHeight=30;tabPosition=left;html=1;boundedLbl=1;labelInHeader=1;container=1;collapsible=0;whiteSpace=wrap;" parent="JedbsohMpSSGX24jmu63-50" vertex="1">
          <mxGeometry x="11" y="54.78382903463524" width="170" height="424.5423728813559" as="geometry" />
        </mxCell>
        <mxCell id="JedbsohMpSSGX24jmu63-17" value="" style="html=1;strokeColor=none;resizeWidth=1;resizeHeight=1;fillColor=none;part=1;connectable=0;allowArrows=0;deletable=0;whiteSpace=wrap;" parent="JedbsohMpSSGX24jmu63-16" vertex="1">
          <mxGeometry width="170" height="297.1796610169492" relative="1" as="geometry">
            <mxPoint y="30" as="offset" />
          </mxGeometry>
        </mxCell>
        <mxCell id="JedbsohMpSSGX24jmu63-56" value="admin" style="shape=folder;fontStyle=1;tabWidth=110;tabHeight=30;tabPosition=left;html=1;boundedLbl=1;labelInHeader=1;container=1;collapsible=0;whiteSpace=wrap;" parent="JedbsohMpSSGX24jmu63-16" vertex="1">
          <mxGeometry x="5.5" y="54.779661016949156" width="159" height="109.55932203389831" as="geometry" />
        </mxCell>
        <mxCell id="JedbsohMpSSGX24jmu63-57" value="" style="html=1;strokeColor=none;resizeWidth=1;resizeHeight=1;fillColor=none;part=1;connectable=0;allowArrows=0;deletable=0;whiteSpace=wrap;" parent="JedbsohMpSSGX24jmu63-56" vertex="1">
          <mxGeometry width="159" height="76.69152542372882" relative="1" as="geometry">
            <mxPoint y="30" as="offset" />
          </mxGeometry>
        </mxCell>
        <mxCell id="JedbsohMpSSGX24jmu63-59" value="toutes les vues html admin" style="html=1;whiteSpace=wrap;" parent="JedbsohMpSSGX24jmu63-56" vertex="1">
          <mxGeometry x="6" y="54.779661016949156" width="147" height="41.08474576271186" as="geometry" />
        </mxCell>
        <mxCell id="JedbsohMpSSGX24jmu63-60" value="standard" style="shape=folder;fontStyle=1;tabWidth=110;tabHeight=30;tabPosition=left;html=1;boundedLbl=1;labelInHeader=1;container=1;collapsible=0;whiteSpace=wrap;" parent="JedbsohMpSSGX24jmu63-16" vertex="1">
          <mxGeometry x="5.5" y="178.03389830508476" width="159" height="109.55932203389831" as="geometry" />
        </mxCell>
        <mxCell id="JedbsohMpSSGX24jmu63-61" value="" style="html=1;strokeColor=none;resizeWidth=1;resizeHeight=1;fillColor=none;part=1;connectable=0;allowArrows=0;deletable=0;whiteSpace=wrap;" parent="JedbsohMpSSGX24jmu63-60" vertex="1">
          <mxGeometry width="159" height="76.69152542372882" relative="1" as="geometry">
            <mxPoint y="30" as="offset" />
          </mxGeometry>
        </mxCell>
        <mxCell id="JedbsohMpSSGX24jmu63-62" value="toutes les vues html standard" style="html=1;whiteSpace=wrap;" parent="JedbsohMpSSGX24jmu63-60" vertex="1">
          <mxGeometry x="6" y="54.779661016949156" width="147" height="41.08474576271186" as="geometry" />
        </mxCell>
        <mxCell id="JedbsohMpSSGX24jmu63-63" value="login" style="shape=folder;fontStyle=1;tabWidth=110;tabHeight=30;tabPosition=left;html=1;boundedLbl=1;labelInHeader=1;container=1;collapsible=0;whiteSpace=wrap;" parent="JedbsohMpSSGX24jmu63-16" vertex="1">
          <mxGeometry x="5.5" y="301.2881355932204" width="159" height="109.55932203389831" as="geometry" />
        </mxCell>
        <mxCell id="JedbsohMpSSGX24jmu63-64" value="" style="html=1;strokeColor=none;resizeWidth=1;resizeHeight=1;fillColor=none;part=1;connectable=0;allowArrows=0;deletable=0;whiteSpace=wrap;" parent="JedbsohMpSSGX24jmu63-63" vertex="1">
          <mxGeometry width="159" height="76.69152542372882" relative="1" as="geometry">
            <mxPoint y="30" as="offset" />
          </mxGeometry>
        </mxCell>
        <mxCell id="JedbsohMpSSGX24jmu63-65" value="login.html" style="html=1;whiteSpace=wrap;" parent="JedbsohMpSSGX24jmu63-63" vertex="1">
          <mxGeometry x="6" y="54.779661016949156" width="147" height="41.08474576271186" as="geometry" />
        </mxCell>
        <mxCell id="JedbsohMpSSGX24jmu63-66" value="urls" style="shape=folder;fontStyle=1;tabWidth=110;tabHeight=30;tabPosition=left;html=1;boundedLbl=1;labelInHeader=1;container=1;collapsible=0;whiteSpace=wrap;" parent="JedbsohMpSSGX24jmu63-50" vertex="1">
          <mxGeometry x="501" y="54.78382903463524" width="170" height="232.81355932203388" as="geometry" />
        </mxCell>
        <mxCell id="JedbsohMpSSGX24jmu63-67" value="" style="html=1;strokeColor=none;resizeWidth=1;resizeHeight=1;fillColor=none;part=1;connectable=0;allowArrows=0;deletable=0;whiteSpace=wrap;" parent="JedbsohMpSSGX24jmu63-66" vertex="1">
          <mxGeometry width="170" height="162.96949152542373" relative="1" as="geometry">
            <mxPoint y="30" as="offset" />
          </mxGeometry>
        </mxCell>
        <mxCell id="JedbsohMpSSGX24jmu63-77" value="login_urls.py" style="html=1;whiteSpace=wrap;" parent="JedbsohMpSSGX24jmu63-66" vertex="1">
          <mxGeometry x="14.169999999999959" y="54.779661016949156" width="141.66666666666666" height="41.08474576271186" as="geometry" />
        </mxCell>
        <mxCell id="JedbsohMpSSGX24jmu63-78" value="admin_urls.py" style="html=1;whiteSpace=wrap;" parent="JedbsohMpSSGX24jmu63-66" vertex="1">
          <mxGeometry x="14.170000000000073" y="109.55932203389831" width="141.66666666666666" height="41.08474576271186" as="geometry" />
        </mxCell>
        <mxCell id="JedbsohMpSSGX24jmu63-79" value="standard_urls.py" style="html=1;whiteSpace=wrap;" parent="JedbsohMpSSGX24jmu63-66" vertex="1">
          <mxGeometry x="14.170000000000073" y="164.33898305084745" width="141.66666666666666" height="41.08474576271186" as="geometry" />
        </mxCell>
        <mxCell id="JedbsohMpSSGX24jmu63-80" value="decorators" style="shape=folder;fontStyle=1;tabWidth=110;tabHeight=30;tabPosition=left;html=1;boundedLbl=1;labelInHeader=1;container=1;collapsible=0;whiteSpace=wrap;" parent="JedbsohMpSSGX24jmu63-50" vertex="1">
          <mxGeometry x="261" y="355.1681002210759" width="170" height="123.25423728813561" as="geometry" />
        </mxCell>
        <mxCell id="JedbsohMpSSGX24jmu63-81" value="" style="html=1;strokeColor=none;resizeWidth=1;resizeHeight=1;fillColor=none;part=1;connectable=0;allowArrows=0;deletable=0;whiteSpace=wrap;" parent="JedbsohMpSSGX24jmu63-80" vertex="1">
          <mxGeometry width="170" height="86.27796610169491" relative="1" as="geometry">
            <mxPoint y="30" as="offset" />
          </mxGeometry>
        </mxCell>
        <mxCell id="JedbsohMpSSGX24jmu63-82" value="decorators.py" style="html=1;whiteSpace=wrap;" parent="JedbsohMpSSGX24jmu63-80" vertex="1">
          <mxGeometry x="14.170000000000016" y="61.05193220338981" width="141.66666666666666" height="41.08474576271186" as="geometry" />
        </mxCell>
        <mxCell id="JedbsohMpSSGX24jmu63-85" value="views" style="shape=folder;fontStyle=1;tabWidth=110;tabHeight=30;tabPosition=left;html=1;boundedLbl=1;labelInHeader=1;container=1;collapsible=0;whiteSpace=wrap;" parent="JedbsohMpSSGX24jmu63-50" vertex="1">
          <mxGeometry x="291" y="54.78382903463524" width="170" height="232.81355932203388" as="geometry" />
        </mxCell>
        <mxCell id="JedbsohMpSSGX24jmu63-86" value="" style="html=1;strokeColor=none;resizeWidth=1;resizeHeight=1;fillColor=none;part=1;connectable=0;allowArrows=0;deletable=0;whiteSpace=wrap;" parent="JedbsohMpSSGX24jmu63-85" vertex="1">
          <mxGeometry width="170" height="162.96949152542373" relative="1" as="geometry">
            <mxPoint y="30" as="offset" />
          </mxGeometry>
        </mxCell>
        <mxCell id="JedbsohMpSSGX24jmu63-87" value="login_views.py" style="html=1;whiteSpace=wrap;" parent="JedbsohMpSSGX24jmu63-85" vertex="1">
          <mxGeometry x="14.169999999999959" y="54.779661016949156" width="141.66666666666666" height="41.08474576271186" as="geometry" />
        </mxCell>
        <mxCell id="JedbsohMpSSGX24jmu63-88" value="admin_views.py" style="html=1;whiteSpace=wrap;" parent="JedbsohMpSSGX24jmu63-85" vertex="1">
          <mxGeometry x="14.170000000000073" y="109.55932203389831" width="141.66666666666666" height="41.08474576271186" as="geometry" />
        </mxCell>
        <mxCell id="JedbsohMpSSGX24jmu63-89" value="standard_views.py" style="html=1;whiteSpace=wrap;" parent="JedbsohMpSSGX24jmu63-85" vertex="1">
          <mxGeometry x="14.170000000000073" y="164.33898305084745" width="141.66666666666666" height="41.08474576271186" as="geometry" />
        </mxCell>
        <mxCell id="JedbsohMpSSGX24jmu63-91" value="urls.py" style="html=1;whiteSpace=wrap;" parent="JedbsohMpSSGX24jmu63-50" vertex="1">
          <mxGeometry x="515.1700000000001" y="355.168100221076" width="141.66666666666666" height="41.08474576271186" as="geometry" />
        </mxCell>
        <mxCell id="JedbsohMpSSGX24jmu63-92" value="" style="endArrow=classic;html=1;rounded=0;fontSize=12;startSize=8;endSize=8;curved=1;entryX=0;entryY=0;entryDx=170;entryDy=170;entryPerimeter=0;exitX=0;exitY=0;exitDx=0;exitDy=100;exitPerimeter=0;" parent="JedbsohMpSSGX24jmu63-50" source="JedbsohMpSSGX24jmu63-85" target="JedbsohMpSSGX24jmu63-16" edge="1">
          <mxGeometry width="50" height="50" relative="1" as="geometry">
            <mxPoint x="-89" y="472.47874428887263" as="sourcePoint" />
            <mxPoint x="-39" y="404.0041680176862" as="targetPoint" />
          </mxGeometry>
        </mxCell>
        <mxCell id="JedbsohMpSSGX24jmu63-93" value="" style="endArrow=classic;html=1;rounded=0;fontSize=12;startSize=8;endSize=8;curved=1;entryX=0.5;entryY=1;entryDx=0;entryDy=0;entryPerimeter=0;exitX=0;exitY=0;exitDx=55;exitDy=0;exitPerimeter=0;" parent="JedbsohMpSSGX24jmu63-50" source="JedbsohMpSSGX24jmu63-80" target="JedbsohMpSSGX24jmu63-85" edge="1">
          <mxGeometry width="50" height="50" relative="1" as="geometry">
            <mxPoint x="-99" y="623.1228120854828" as="sourcePoint" />
            <mxPoint x="-49" y="554.6482358142963" as="targetPoint" />
          </mxGeometry>
        </mxCell>
        <mxCell id="JedbsohMpSSGX24jmu63-94" value="" style="endArrow=classic;html=1;rounded=0;fontSize=12;startSize=8;endSize=8;curved=1;entryX=0;entryY=0;entryDx=170;entryDy=60;entryPerimeter=0;exitX=0;exitY=0;exitDx=0;exitDy=100;exitPerimeter=0;" parent="JedbsohMpSSGX24jmu63-50" source="JedbsohMpSSGX24jmu63-66" target="JedbsohMpSSGX24jmu63-80" edge="1">
          <mxGeometry width="50" height="50" relative="1" as="geometry">
            <mxPoint x="-99" y="431.3939985261607" as="sourcePoint" />
            <mxPoint x="-49" y="362.91942225497434" as="targetPoint" />
          </mxGeometry>
        </mxCell>
        <mxCell id="JedbsohMpSSGX24jmu63-90" value="apps.py" style="html=1;whiteSpace=wrap;" parent="JedbsohMpSSGX24jmu63-50" vertex="1">
          <mxGeometry x="515.17" y="472.47874428887263" width="141.66666666666666" height="41.08474576271186" as="geometry" />
        </mxCell>
        <mxCell id="JedbsohMpSSGX24jmu63-11" value="manage.py" style="html=1;whiteSpace=wrap;" parent="JedbsohMpSSGX24jmu63-50" vertex="1">
          <mxGeometry x="515.1715151515151" y="609.4278968312454" width="141.66666666666666" height="41.08474576271186" as="geometry" />
        </mxCell>
        <mxCell id="JedbsohMpSSGX24jmu63-95" value="" style="endArrow=classic;html=1;rounded=0;fontSize=12;startSize=8;endSize=8;curved=1;entryX=0.5;entryY=1;entryDx=0;entryDy=0;entryPerimeter=0;exitX=0.5;exitY=0;exitDx=0;exitDy=0;" parent="JedbsohMpSSGX24jmu63-50" source="JedbsohMpSSGX24jmu63-91" target="JedbsohMpSSGX24jmu63-66" edge="1">
          <mxGeometry width="50" height="50" relative="1" as="geometry">
            <mxPoint x="-39" y="732.6821341193811" as="sourcePoint" />
            <mxPoint x="11" y="664.2075578481947" as="targetPoint" />
          </mxGeometry>
        </mxCell>
        <mxCell id="JedbsohMpSSGX24jmu63-96" value="" style="endArrow=classic;html=1;rounded=0;fontSize=12;startSize=8;endSize=8;curved=1;entryX=0.5;entryY=1;entryDx=0;entryDy=0;exitX=0.5;exitY=0;exitDx=0;exitDy=0;" parent="JedbsohMpSSGX24jmu63-50" source="JedbsohMpSSGX24jmu63-90" target="JedbsohMpSSGX24jmu63-91" edge="1">
          <mxGeometry width="50" height="50" relative="1" as="geometry">
            <mxPoint x="-129" y="664.2075578481947" as="sourcePoint" />
            <mxPoint x="-79" y="595.7329815770081" as="targetPoint" />
          </mxGeometry>
        </mxCell>
        <mxCell id="JedbsohMpSSGX24jmu63-97" value="" style="endArrow=classic;html=1;rounded=0;fontSize=12;startSize=8;endSize=8;curved=1;entryX=0.5;entryY=1;entryDx=0;entryDy=0;exitX=0.5;exitY=0;exitDx=0;exitDy=0;" parent="JedbsohMpSSGX24jmu63-50" source="JedbsohMpSSGX24jmu63-11" target="JedbsohMpSSGX24jmu63-90" edge="1">
          <mxGeometry width="50" height="50" relative="1" as="geometry">
            <mxPoint x="-129" y="609.4278968312454" as="sourcePoint" />
            <mxPoint x="-79" y="540.9533205600591" as="targetPoint" />
          </mxGeometry>
        </mxCell>
        <mxCell id="gchPV3lLlGHh6u4dMBYy-1" value="orchestration-sales" style="shape=folder;fontStyle=1;tabWidth=110;tabHeight=30;tabPosition=left;html=1;boundedLbl=1;labelInHeader=1;container=1;collapsible=0;whiteSpace=wrap;" parent="qvupkEEIyL3yOIonO_8t-2" vertex="1">
          <mxGeometry x="1880" y="1130" width="891.5" height="505" as="geometry" />
        </mxCell>
        <mxCell id="gchPV3lLlGHh6u4dMBYy-2" value="" style="html=1;strokeColor=none;resizeWidth=1;resizeHeight=1;fillColor=none;part=1;connectable=0;allowArrows=0;deletable=0;whiteSpace=wrap;" parent="gchPV3lLlGHh6u4dMBYy-1" vertex="1">
          <mxGeometry width="891.4999999999999" height="318.7295081967213" relative="1" as="geometry">
            <mxPoint y="30" as="offset" />
          </mxGeometry>
        </mxCell>
        <mxCell id="gchPV3lLlGHh6u4dMBYy-3" value="controllers" style="shape=folder;fontStyle=1;tabWidth=110;tabHeight=30;tabPosition=left;html=1;boundedLbl=1;labelInHeader=1;container=1;collapsible=0;whiteSpace=wrap;" parent="gchPV3lLlGHh6u4dMBYy-1" vertex="1">
          <mxGeometry x="311.5" y="45" width="190" height="100" as="geometry" />
        </mxCell>
        <mxCell id="gchPV3lLlGHh6u4dMBYy-4" value="" style="html=1;strokeColor=none;resizeWidth=1;resizeHeight=1;fillColor=none;part=1;connectable=0;allowArrows=0;deletable=0;whiteSpace=wrap;" parent="gchPV3lLlGHh6u4dMBYy-3" vertex="1">
          <mxGeometry width="190" height="70.00000000000001" relative="1" as="geometry">
            <mxPoint y="30" as="offset" />
          </mxGeometry>
        </mxCell>
        <mxCell id="gchPV3lLlGHh6u4dMBYy-5" value="orchestrationSalesController.js" style="html=1;whiteSpace=wrap;" parent="gchPV3lLlGHh6u4dMBYy-3" vertex="1">
          <mxGeometry x="10" y="40" width="170" height="30" as="geometry" />
        </mxCell>
        <mxCell id="gchPV3lLlGHh6u4dMBYy-6" value="routes" style="shape=folder;fontStyle=1;tabWidth=110;tabHeight=30;tabPosition=left;html=1;boundedLbl=1;labelInHeader=1;container=1;collapsible=0;whiteSpace=wrap;" parent="gchPV3lLlGHh6u4dMBYy-1" vertex="1">
          <mxGeometry x="11.5" y="50" width="227.68" height="90" as="geometry" />
        </mxCell>
        <mxCell id="gchPV3lLlGHh6u4dMBYy-7" value="" style="html=1;strokeColor=none;resizeWidth=1;resizeHeight=1;fillColor=none;part=1;connectable=0;allowArrows=0;deletable=0;whiteSpace=wrap;" parent="gchPV3lLlGHh6u4dMBYy-6" vertex="1">
          <mxGeometry width="227.68" height="63.00000000000001" relative="1" as="geometry">
            <mxPoint y="30" as="offset" />
          </mxGeometry>
        </mxCell>
        <mxCell id="gchPV3lLlGHh6u4dMBYy-8" value="orchestrationSalesRouter.js" style="html=1;whiteSpace=wrap;" parent="gchPV3lLlGHh6u4dMBYy-6" vertex="1">
          <mxGeometry x="30" y="45" width="154.68" height="29.77" as="geometry" />
        </mxCell>
        <mxCell id="gchPV3lLlGHh6u4dMBYy-9" value="test" style="shape=folder;fontStyle=1;tabWidth=110;tabHeight=30;tabPosition=left;html=1;boundedLbl=1;labelInHeader=1;container=1;collapsible=0;whiteSpace=wrap;" parent="gchPV3lLlGHh6u4dMBYy-1" vertex="1">
          <mxGeometry x="11.5" y="150" width="130" height="160" as="geometry" />
        </mxCell>
        <mxCell id="gchPV3lLlGHh6u4dMBYy-10" value="" style="html=1;strokeColor=none;resizeWidth=1;resizeHeight=1;fillColor=none;part=1;connectable=0;allowArrows=0;deletable=0;whiteSpace=wrap;" parent="gchPV3lLlGHh6u4dMBYy-9" vertex="1">
          <mxGeometry width="130" height="112.00000000000001" relative="1" as="geometry">
            <mxPoint y="30" as="offset" />
          </mxGeometry>
        </mxCell>
        <mxCell id="gchPV3lLlGHh6u4dMBYy-11" value="suppliesRouter.test.js" style="html=1;whiteSpace=wrap;" parent="gchPV3lLlGHh6u4dMBYy-9" vertex="1">
          <mxGeometry x="6.880000000000109" y="40" width="116.25" height="29.77" as="geometry" />
        </mxCell>
        <mxCell id="gchPV3lLlGHh6u4dMBYy-12" value="setupTests.js" style="html=1;whiteSpace=wrap;" parent="gchPV3lLlGHh6u4dMBYy-9" vertex="1">
          <mxGeometry x="6.880000000000109" y="100" width="116.25" height="29.77" as="geometry" />
        </mxCell>
        <mxCell id="gchPV3lLlGHh6u4dMBYy-13" value="" style="endArrow=classic;html=1;rounded=0;fontSize=12;startSize=8;endSize=8;curved=1;entryX=0.5;entryY=0;entryDx=0;entryDy=0;exitX=0.5;exitY=1;exitDx=0;exitDy=0;" parent="gchPV3lLlGHh6u4dMBYy-9" source="gchPV3lLlGHh6u4dMBYy-11" target="gchPV3lLlGHh6u4dMBYy-12" edge="1">
          <mxGeometry width="50" height="50" relative="1" as="geometry">
            <mxPoint x="-280" y="190" as="sourcePoint" />
            <mxPoint x="-230" y="140" as="targetPoint" />
          </mxGeometry>
        </mxCell>
        <mxCell id="gchPV3lLlGHh6u4dMBYy-14" value="app.js" style="html=1;whiteSpace=wrap;" parent="gchPV3lLlGHh6u4dMBYy-1" vertex="1">
          <mxGeometry x="181.5" y="180" width="141.66666666666666" height="30" as="geometry" />
        </mxCell>
        <mxCell id="gchPV3lLlGHh6u4dMBYy-15" value="utils" style="shape=folder;fontStyle=1;tabWidth=110;tabHeight=30;tabPosition=left;html=1;boundedLbl=1;labelInHeader=1;container=1;collapsible=0;whiteSpace=wrap;" parent="gchPV3lLlGHh6u4dMBYy-1" vertex="1">
          <mxGeometry x="196.5" y="250" width="160" height="195" as="geometry" />
        </mxCell>
        <mxCell id="gchPV3lLlGHh6u4dMBYy-16" value="" style="html=1;strokeColor=none;resizeWidth=1;resizeHeight=1;fillColor=none;part=1;connectable=0;allowArrows=0;deletable=0;whiteSpace=wrap;" parent="gchPV3lLlGHh6u4dMBYy-15" vertex="1">
          <mxGeometry width="160" height="136.50000000000003" relative="1" as="geometry">
            <mxPoint y="30" as="offset" />
          </mxGeometry>
        </mxCell>
        <mxCell id="gchPV3lLlGHh6u4dMBYy-17" value="logger.js" style="html=1;whiteSpace=wrap;" parent="gchPV3lLlGHh6u4dMBYy-15" vertex="1">
          <mxGeometry x="9.170000000000073" y="45" width="141.66666666666666" height="30" as="geometry" />
        </mxCell>
        <mxCell id="gchPV3lLlGHh6u4dMBYy-18" value="redisClient.js" style="html=1;whiteSpace=wrap;" parent="gchPV3lLlGHh6u4dMBYy-15" vertex="1">
          <mxGeometry x="9.170000000000073" y="95" width="141.66666666666666" height="30" as="geometry" />
        </mxCell>
        <mxCell id="gchPV3lLlGHh6u4dMBYy-19" value="authentication.js" style="html=1;whiteSpace=wrap;" parent="gchPV3lLlGHh6u4dMBYy-15" vertex="1">
          <mxGeometry x="9.170000000000073" y="140" width="141.66666666666666" height="30" as="geometry" />
        </mxCell>
        <mxCell id="gchPV3lLlGHh6u4dMBYy-21" value="models" style="shape=folder;fontStyle=1;tabWidth=110;tabHeight=30;tabPosition=left;html=1;boundedLbl=1;labelInHeader=1;container=1;collapsible=0;whiteSpace=wrap;" parent="gchPV3lLlGHh6u4dMBYy-1" vertex="1">
          <mxGeometry x="591.5" y="45" width="227.68" height="125" as="geometry" />
        </mxCell>
        <mxCell id="gchPV3lLlGHh6u4dMBYy-22" value="" style="html=1;strokeColor=none;resizeWidth=1;resizeHeight=1;fillColor=none;part=1;connectable=0;allowArrows=0;deletable=0;whiteSpace=wrap;" parent="gchPV3lLlGHh6u4dMBYy-21" vertex="1">
          <mxGeometry width="227.68" height="87.50000000000003" relative="1" as="geometry">
            <mxPoint y="30" as="offset" />
          </mxGeometry>
        </mxCell>
        <mxCell id="gchPV3lLlGHh6u4dMBYy-23" value="Event.js" style="html=1;whiteSpace=wrap;" parent="gchPV3lLlGHh6u4dMBYy-21" vertex="1">
          <mxGeometry x="43.00227272727261" y="59.5814936324532" width="141.66666666666666" height="35.422113519439996" as="geometry" />
        </mxCell>
        <mxCell id="gchPV3lLlGHh6u4dMBYy-25" value="" style="endArrow=classic;html=1;rounded=0;entryX=0;entryY=0.5;entryDx=0;entryDy=0;exitX=1;exitY=0.5;exitDx=0;exitDy=0;" parent="gchPV3lLlGHh6u4dMBYy-1" source="gchPV3lLlGHh6u4dMBYy-8" target="gchPV3lLlGHh6u4dMBYy-5" edge="1">
          <mxGeometry width="50" height="50" relative="1" as="geometry">
            <mxPoint x="471.5" y="-675" as="sourcePoint" />
            <mxPoint x="521.5" y="-725" as="targetPoint" />
          </mxGeometry>
        </mxCell>
        <mxCell id="gchPV3lLlGHh6u4dMBYy-26" value="" style="endArrow=classic;html=1;rounded=0;entryX=0;entryY=0;entryDx=0;entryDy=85;entryPerimeter=0;exitX=1;exitY=0.5;exitDx=0;exitDy=0;" parent="gchPV3lLlGHh6u4dMBYy-1" source="gchPV3lLlGHh6u4dMBYy-5" target="gchPV3lLlGHh6u4dMBYy-21" edge="1">
          <mxGeometry width="50" height="50" relative="1" as="geometry">
            <mxPoint x="211.5" y="-305" as="sourcePoint" />
            <mxPoint x="261.5" y="-355" as="targetPoint" />
          </mxGeometry>
        </mxCell>
        <mxCell id="gchPV3lLlGHh6u4dMBYy-27" value="" style="endArrow=classic;html=1;rounded=0;entryX=0.5;entryY=1;entryDx=0;entryDy=0;exitX=0.25;exitY=0;exitDx=0;exitDy=0;" parent="gchPV3lLlGHh6u4dMBYy-1" source="gchPV3lLlGHh6u4dMBYy-14" target="gchPV3lLlGHh6u4dMBYy-8" edge="1">
          <mxGeometry width="50" height="50" relative="1" as="geometry">
            <mxPoint x="191.5" y="-375" as="sourcePoint" />
            <mxPoint x="241.5" y="-425" as="targetPoint" />
          </mxGeometry>
        </mxCell>
        <mxCell id="gchPV3lLlGHh6u4dMBYy-28" value="" style="endArrow=classic;html=1;rounded=0;entryX=0;entryY=0;entryDx=55;entryDy=0;entryPerimeter=0;exitX=0.5;exitY=1;exitDx=0;exitDy=0;" parent="gchPV3lLlGHh6u4dMBYy-1" source="gchPV3lLlGHh6u4dMBYy-14" target="gchPV3lLlGHh6u4dMBYy-15" edge="1">
          <mxGeometry width="50" height="50" relative="1" as="geometry">
            <mxPoint x="111.5" y="-225" as="sourcePoint" />
            <mxPoint x="161.5" y="-275" as="targetPoint" />
          </mxGeometry>
        </mxCell>
        <mxCell id="gchPV3lLlGHh6u4dMBYy-30" value="metrics" style="shape=folder;fontStyle=1;tabWidth=110;tabHeight=30;tabPosition=left;html=1;boundedLbl=1;labelInHeader=1;container=1;collapsible=0;whiteSpace=wrap;" parent="gchPV3lLlGHh6u4dMBYy-1" vertex="1">
          <mxGeometry x="450" y="210" width="160" height="100" as="geometry" />
        </mxCell>
        <mxCell id="gchPV3lLlGHh6u4dMBYy-31" value="" style="html=1;strokeColor=none;resizeWidth=1;resizeHeight=1;fillColor=none;part=1;connectable=0;allowArrows=0;deletable=0;whiteSpace=wrap;" parent="gchPV3lLlGHh6u4dMBYy-30" vertex="1">
          <mxGeometry width="160" height="70.00000000000001" relative="1" as="geometry">
            <mxPoint y="30" as="offset" />
          </mxGeometry>
        </mxCell>
        <mxCell id="gchPV3lLlGHh6u4dMBYy-32" value="sagaMetrics.js" style="html=1;whiteSpace=wrap;" parent="gchPV3lLlGHh6u4dMBYy-30" vertex="1">
          <mxGeometry x="9.170000000000073" y="50" width="141.66666666666666" height="30" as="geometry" />
        </mxCell>
        <mxCell id="gchPV3lLlGHh6u4dMBYy-35" value="" style="endArrow=classic;html=1;rounded=0;entryX=0;entryY=0.5;entryDx=0;entryDy=0;exitX=1;exitY=0.5;exitDx=0;exitDy=0;" parent="gchPV3lLlGHh6u4dMBYy-1" source="gchPV3lLlGHh6u4dMBYy-14" target="gchPV3lLlGHh6u4dMBYy-32" edge="1">
          <mxGeometry width="50" height="50" relative="1" as="geometry">
            <mxPoint x="356.5" y="220" as="sourcePoint" />
            <mxPoint x="482.5" y="210" as="targetPoint" />
          </mxGeometry>
        </mxCell>
        <mxCell id="sSLa41Jm4dLuRAajcqVf-31" value="notification" style="shape=folder;fontStyle=1;tabWidth=110;tabHeight=30;tabPosition=left;html=1;boundedLbl=1;labelInHeader=1;container=1;collapsible=0;whiteSpace=wrap;" vertex="1" parent="qvupkEEIyL3yOIonO_8t-2">
          <mxGeometry x="1880" y="1650" width="891.5" height="505" as="geometry" />
        </mxCell>
        <mxCell id="sSLa41Jm4dLuRAajcqVf-32" value="" style="html=1;strokeColor=none;resizeWidth=1;resizeHeight=1;fillColor=none;part=1;connectable=0;allowArrows=0;deletable=0;whiteSpace=wrap;" vertex="1" parent="sSLa41Jm4dLuRAajcqVf-31">
          <mxGeometry width="891.4999999999999" height="318.7295081967213" relative="1" as="geometry">
            <mxPoint y="30" as="offset" />
          </mxGeometry>
        </mxCell>
        <mxCell id="sSLa41Jm4dLuRAajcqVf-39" value="test" style="shape=folder;fontStyle=1;tabWidth=110;tabHeight=30;tabPosition=left;html=1;boundedLbl=1;labelInHeader=1;container=1;collapsible=0;whiteSpace=wrap;" vertex="1" parent="sSLa41Jm4dLuRAajcqVf-31">
          <mxGeometry x="11.5" y="150" width="130" height="160" as="geometry" />
        </mxCell>
        <mxCell id="sSLa41Jm4dLuRAajcqVf-40" value="" style="html=1;strokeColor=none;resizeWidth=1;resizeHeight=1;fillColor=none;part=1;connectable=0;allowArrows=0;deletable=0;whiteSpace=wrap;" vertex="1" parent="sSLa41Jm4dLuRAajcqVf-39">
          <mxGeometry width="130" height="112.00000000000001" relative="1" as="geometry">
            <mxPoint y="30" as="offset" />
          </mxGeometry>
        </mxCell>
        <mxCell id="sSLa41Jm4dLuRAajcqVf-41" value="notification.test.js" style="html=1;whiteSpace=wrap;" vertex="1" parent="sSLa41Jm4dLuRAajcqVf-39">
          <mxGeometry x="6.880000000000109" y="40" width="116.25" height="29.77" as="geometry" />
        </mxCell>
        <mxCell id="sSLa41Jm4dLuRAajcqVf-42" value="setupTests.js" style="html=1;whiteSpace=wrap;" vertex="1" parent="sSLa41Jm4dLuRAajcqVf-39">
          <mxGeometry x="6.880000000000109" y="100" width="116.25" height="29.77" as="geometry" />
        </mxCell>
        <mxCell id="sSLa41Jm4dLuRAajcqVf-43" value="" style="endArrow=classic;html=1;rounded=0;fontSize=12;startSize=8;endSize=8;curved=1;entryX=0.5;entryY=0;entryDx=0;entryDy=0;exitX=0.5;exitY=1;exitDx=0;exitDy=0;" edge="1" parent="sSLa41Jm4dLuRAajcqVf-39" source="sSLa41Jm4dLuRAajcqVf-41" target="sSLa41Jm4dLuRAajcqVf-42">
          <mxGeometry width="50" height="50" relative="1" as="geometry">
            <mxPoint x="-280" y="190" as="sourcePoint" />
            <mxPoint x="-230" y="140" as="targetPoint" />
          </mxGeometry>
        </mxCell>
        <mxCell id="sSLa41Jm4dLuRAajcqVf-44" value="app.js" style="html=1;whiteSpace=wrap;" vertex="1" parent="sSLa41Jm4dLuRAajcqVf-31">
          <mxGeometry x="181.5" y="180" width="141.66666666666666" height="30" as="geometry" />
        </mxCell>
        <mxCell id="sSLa41Jm4dLuRAajcqVf-45" value="utils" style="shape=folder;fontStyle=1;tabWidth=110;tabHeight=30;tabPosition=left;html=1;boundedLbl=1;labelInHeader=1;container=1;collapsible=0;whiteSpace=wrap;" vertex="1" parent="sSLa41Jm4dLuRAajcqVf-31">
          <mxGeometry x="196.5" y="250" width="160" height="230" as="geometry" />
        </mxCell>
        <mxCell id="sSLa41Jm4dLuRAajcqVf-46" value="" style="html=1;strokeColor=none;resizeWidth=1;resizeHeight=1;fillColor=none;part=1;connectable=0;allowArrows=0;deletable=0;whiteSpace=wrap;" vertex="1" parent="sSLa41Jm4dLuRAajcqVf-45">
          <mxGeometry width="160" height="161.00000000000003" relative="1" as="geometry">
            <mxPoint y="30" as="offset" />
          </mxGeometry>
        </mxCell>
        <mxCell id="sSLa41Jm4dLuRAajcqVf-47" value="logger.js" style="html=1;whiteSpace=wrap;" vertex="1" parent="sSLa41Jm4dLuRAajcqVf-45">
          <mxGeometry x="9.170000000000073" y="42.07692307692308" width="141.66666666666666" height="35.38461538461539" as="geometry" />
        </mxCell>
        <mxCell id="sSLa41Jm4dLuRAajcqVf-48" value="redisClient.js" style="html=1;whiteSpace=wrap;" vertex="1" parent="sSLa41Jm4dLuRAajcqVf-45">
          <mxGeometry x="9.170000000000073" y="93.05128205128206" width="141.66666666666666" height="35.38461538461539" as="geometry" />
        </mxCell>
        <mxCell id="sSLa41Jm4dLuRAajcqVf-49" value="authentication.js" style="html=1;whiteSpace=wrap;" vertex="1" parent="sSLa41Jm4dLuRAajcqVf-45">
          <mxGeometry x="9.170000000000073" y="143.12820512820514" width="141.66666666666666" height="35.38461538461539" as="geometry" />
        </mxCell>
        <mxCell id="sSLa41Jm4dLuRAajcqVf-141" value="consumer.js" style="html=1;whiteSpace=wrap;" vertex="1" parent="sSLa41Jm4dLuRAajcqVf-45">
          <mxGeometry x="9.170000000000073" y="186" width="141.66666666666666" height="33.84615384615385" as="geometry" />
        </mxCell>
        <mxCell id="sSLa41Jm4dLuRAajcqVf-56" value="" style="endArrow=classic;html=1;rounded=0;entryX=0;entryY=0;entryDx=55;entryDy=0;entryPerimeter=0;exitX=0.5;exitY=1;exitDx=0;exitDy=0;" edge="1" parent="sSLa41Jm4dLuRAajcqVf-31" source="sSLa41Jm4dLuRAajcqVf-44" target="sSLa41Jm4dLuRAajcqVf-45">
          <mxGeometry width="50" height="50" relative="1" as="geometry">
            <mxPoint x="111.5" y="-225" as="sourcePoint" />
            <mxPoint x="161.5" y="-275" as="targetPoint" />
          </mxGeometry>
        </mxCell>
        <mxCell id="sSLa41Jm4dLuRAajcqVf-57" value="metrics" style="shape=folder;fontStyle=1;tabWidth=110;tabHeight=30;tabPosition=left;html=1;boundedLbl=1;labelInHeader=1;container=1;collapsible=0;whiteSpace=wrap;" vertex="1" parent="sSLa41Jm4dLuRAajcqVf-31">
          <mxGeometry x="450" y="210" width="160" height="100" as="geometry" />
        </mxCell>
        <mxCell id="sSLa41Jm4dLuRAajcqVf-58" value="" style="html=1;strokeColor=none;resizeWidth=1;resizeHeight=1;fillColor=none;part=1;connectable=0;allowArrows=0;deletable=0;whiteSpace=wrap;" vertex="1" parent="sSLa41Jm4dLuRAajcqVf-57">
          <mxGeometry width="160" height="70.00000000000001" relative="1" as="geometry">
            <mxPoint y="30" as="offset" />
          </mxGeometry>
        </mxCell>
        <mxCell id="sSLa41Jm4dLuRAajcqVf-59" value="sagaMetrics.js" style="html=1;whiteSpace=wrap;" vertex="1" parent="sSLa41Jm4dLuRAajcqVf-57">
          <mxGeometry x="9.170000000000073" y="50" width="141.66666666666666" height="30" as="geometry" />
        </mxCell>
        <mxCell id="sSLa41Jm4dLuRAajcqVf-60" value="" style="endArrow=classic;html=1;rounded=0;entryX=0;entryY=0.5;entryDx=0;entryDy=0;exitX=1;exitY=0.5;exitDx=0;exitDy=0;" edge="1" parent="sSLa41Jm4dLuRAajcqVf-31" source="sSLa41Jm4dLuRAajcqVf-44" target="sSLa41Jm4dLuRAajcqVf-59">
          <mxGeometry width="50" height="50" relative="1" as="geometry">
            <mxPoint x="356.5" y="220" as="sourcePoint" />
            <mxPoint x="482.5" y="210" as="targetPoint" />
          </mxGeometry>
        </mxCell>
        <mxCell id="sSLa41Jm4dLuRAajcqVf-1" value="supplies-event-store" style="shape=folder;fontStyle=1;tabWidth=110;tabHeight=30;tabPosition=left;html=1;boundedLbl=1;labelInHeader=1;container=1;collapsible=0;whiteSpace=wrap;" vertex="1" parent="qvupkEEIyL3yOIonO_8t-2">
          <mxGeometry x="2830" y="1660" width="891.5" height="505" as="geometry" />
        </mxCell>
        <mxCell id="sSLa41Jm4dLuRAajcqVf-2" value="" style="html=1;strokeColor=none;resizeWidth=1;resizeHeight=1;fillColor=none;part=1;connectable=0;allowArrows=0;deletable=0;whiteSpace=wrap;" vertex="1" parent="sSLa41Jm4dLuRAajcqVf-1">
          <mxGeometry width="891.4999999999999" height="318.7295081967213" relative="1" as="geometry">
            <mxPoint y="30" as="offset" />
          </mxGeometry>
        </mxCell>
        <mxCell id="sSLa41Jm4dLuRAajcqVf-3" value="controllers" style="shape=folder;fontStyle=1;tabWidth=110;tabHeight=30;tabPosition=left;html=1;boundedLbl=1;labelInHeader=1;container=1;collapsible=0;whiteSpace=wrap;" vertex="1" parent="sSLa41Jm4dLuRAajcqVf-1">
          <mxGeometry x="311.5" y="45" width="190" height="100" as="geometry" />
        </mxCell>
        <mxCell id="sSLa41Jm4dLuRAajcqVf-4" value="" style="html=1;strokeColor=none;resizeWidth=1;resizeHeight=1;fillColor=none;part=1;connectable=0;allowArrows=0;deletable=0;whiteSpace=wrap;" vertex="1" parent="sSLa41Jm4dLuRAajcqVf-3">
          <mxGeometry width="190" height="70.00000000000001" relative="1" as="geometry">
            <mxPoint y="30" as="offset" />
          </mxGeometry>
        </mxCell>
        <mxCell id="sSLa41Jm4dLuRAajcqVf-5" value="suppliesEventController.js" style="html=1;whiteSpace=wrap;" vertex="1" parent="sSLa41Jm4dLuRAajcqVf-3">
          <mxGeometry x="10" y="40" width="170" height="30" as="geometry" />
        </mxCell>
        <mxCell id="sSLa41Jm4dLuRAajcqVf-6" value="routes" style="shape=folder;fontStyle=1;tabWidth=110;tabHeight=30;tabPosition=left;html=1;boundedLbl=1;labelInHeader=1;container=1;collapsible=0;whiteSpace=wrap;" vertex="1" parent="sSLa41Jm4dLuRAajcqVf-1">
          <mxGeometry x="11.5" y="50" width="227.68" height="90" as="geometry" />
        </mxCell>
        <mxCell id="sSLa41Jm4dLuRAajcqVf-7" value="" style="html=1;strokeColor=none;resizeWidth=1;resizeHeight=1;fillColor=none;part=1;connectable=0;allowArrows=0;deletable=0;whiteSpace=wrap;" vertex="1" parent="sSLa41Jm4dLuRAajcqVf-6">
          <mxGeometry width="227.68" height="63.00000000000001" relative="1" as="geometry">
            <mxPoint y="30" as="offset" />
          </mxGeometry>
        </mxCell>
        <mxCell id="sSLa41Jm4dLuRAajcqVf-8" value="suppliesEventRouter.js" style="html=1;whiteSpace=wrap;" vertex="1" parent="sSLa41Jm4dLuRAajcqVf-6">
          <mxGeometry x="30" y="45" width="154.68" height="29.77" as="geometry" />
        </mxCell>
        <mxCell id="sSLa41Jm4dLuRAajcqVf-9" value="test" style="shape=folder;fontStyle=1;tabWidth=110;tabHeight=30;tabPosition=left;html=1;boundedLbl=1;labelInHeader=1;container=1;collapsible=0;whiteSpace=wrap;" vertex="1" parent="sSLa41Jm4dLuRAajcqVf-1">
          <mxGeometry x="11.5" y="150" width="130" height="160" as="geometry" />
        </mxCell>
        <mxCell id="sSLa41Jm4dLuRAajcqVf-10" value="" style="html=1;strokeColor=none;resizeWidth=1;resizeHeight=1;fillColor=none;part=1;connectable=0;allowArrows=0;deletable=0;whiteSpace=wrap;" vertex="1" parent="sSLa41Jm4dLuRAajcqVf-9">
          <mxGeometry width="130" height="112.00000000000001" relative="1" as="geometry">
            <mxPoint y="30" as="offset" />
          </mxGeometry>
        </mxCell>
        <mxCell id="sSLa41Jm4dLuRAajcqVf-11" value="suppliesEventRouter.test.js" style="html=1;whiteSpace=wrap;" vertex="1" parent="sSLa41Jm4dLuRAajcqVf-9">
          <mxGeometry x="6.880000000000109" y="40" width="116.25" height="29.77" as="geometry" />
        </mxCell>
        <mxCell id="sSLa41Jm4dLuRAajcqVf-12" value="setupTests.js" style="html=1;whiteSpace=wrap;" vertex="1" parent="sSLa41Jm4dLuRAajcqVf-9">
          <mxGeometry x="6.880000000000109" y="100" width="116.25" height="29.77" as="geometry" />
        </mxCell>
        <mxCell id="sSLa41Jm4dLuRAajcqVf-13" value="" style="endArrow=classic;html=1;rounded=0;fontSize=12;startSize=8;endSize=8;curved=1;entryX=0.5;entryY=0;entryDx=0;entryDy=0;exitX=0.5;exitY=1;exitDx=0;exitDy=0;" edge="1" parent="sSLa41Jm4dLuRAajcqVf-9" source="sSLa41Jm4dLuRAajcqVf-11" target="sSLa41Jm4dLuRAajcqVf-12">
          <mxGeometry width="50" height="50" relative="1" as="geometry">
            <mxPoint x="-280" y="190" as="sourcePoint" />
            <mxPoint x="-230" y="140" as="targetPoint" />
          </mxGeometry>
        </mxCell>
        <mxCell id="sSLa41Jm4dLuRAajcqVf-14" value="app.js" style="html=1;whiteSpace=wrap;" vertex="1" parent="sSLa41Jm4dLuRAajcqVf-1">
          <mxGeometry x="181.5" y="180" width="141.66666666666666" height="30" as="geometry" />
        </mxCell>
        <mxCell id="sSLa41Jm4dLuRAajcqVf-15" value="utils" style="shape=folder;fontStyle=1;tabWidth=110;tabHeight=30;tabPosition=left;html=1;boundedLbl=1;labelInHeader=1;container=1;collapsible=0;whiteSpace=wrap;" vertex="1" parent="sSLa41Jm4dLuRAajcqVf-1">
          <mxGeometry x="196.5" y="250" width="160" height="230" as="geometry" />
        </mxCell>
        <mxCell id="sSLa41Jm4dLuRAajcqVf-16" value="" style="html=1;strokeColor=none;resizeWidth=1;resizeHeight=1;fillColor=none;part=1;connectable=0;allowArrows=0;deletable=0;whiteSpace=wrap;" vertex="1" parent="sSLa41Jm4dLuRAajcqVf-15">
          <mxGeometry width="160" height="161.00000000000003" relative="1" as="geometry">
            <mxPoint y="30" as="offset" />
          </mxGeometry>
        </mxCell>
        <mxCell id="sSLa41Jm4dLuRAajcqVf-17" value="logger.js" style="html=1;whiteSpace=wrap;" vertex="1" parent="sSLa41Jm4dLuRAajcqVf-15">
          <mxGeometry x="9.170000000000073" y="39.07692307692308" width="141.66666666666666" height="35.38461538461539" as="geometry" />
        </mxCell>
        <mxCell id="sSLa41Jm4dLuRAajcqVf-18" value="redisClient.js" style="html=1;whiteSpace=wrap;" vertex="1" parent="sSLa41Jm4dLuRAajcqVf-15">
          <mxGeometry x="9.170000000000073" y="81.05128205128206" width="141.66666666666666" height="35.38461538461539" as="geometry" />
        </mxCell>
        <mxCell id="sSLa41Jm4dLuRAajcqVf-19" value="authentication.js" style="html=1;whiteSpace=wrap;" vertex="1" parent="sSLa41Jm4dLuRAajcqVf-15">
          <mxGeometry x="9.170000000000073" y="139.12820512820514" width="141.66666666666666" height="35.38461538461539" as="geometry" />
        </mxCell>
        <mxCell id="sSLa41Jm4dLuRAajcqVf-140" value="consumer.js" style="html=1;whiteSpace=wrap;" vertex="1" parent="sSLa41Jm4dLuRAajcqVf-15">
          <mxGeometry x="9.170000000000073" y="190" width="141.66666666666666" height="33.84615384615385" as="geometry" />
        </mxCell>
        <mxCell id="sSLa41Jm4dLuRAajcqVf-20" value="models" style="shape=folder;fontStyle=1;tabWidth=110;tabHeight=30;tabPosition=left;html=1;boundedLbl=1;labelInHeader=1;container=1;collapsible=0;whiteSpace=wrap;" vertex="1" parent="sSLa41Jm4dLuRAajcqVf-1">
          <mxGeometry x="591.5" y="45" width="227.68" height="125" as="geometry" />
        </mxCell>
        <mxCell id="sSLa41Jm4dLuRAajcqVf-21" value="" style="html=1;strokeColor=none;resizeWidth=1;resizeHeight=1;fillColor=none;part=1;connectable=0;allowArrows=0;deletable=0;whiteSpace=wrap;" vertex="1" parent="sSLa41Jm4dLuRAajcqVf-20">
          <mxGeometry width="227.68" height="87.50000000000003" relative="1" as="geometry">
            <mxPoint y="30" as="offset" />
          </mxGeometry>
        </mxCell>
        <mxCell id="sSLa41Jm4dLuRAajcqVf-22" value="SupplyEvent.js" style="html=1;whiteSpace=wrap;" vertex="1" parent="sSLa41Jm4dLuRAajcqVf-20">
          <mxGeometry x="43.00227272727261" y="59.5814936324532" width="141.66666666666666" height="35.422113519439996" as="geometry" />
        </mxCell>
        <mxCell id="sSLa41Jm4dLuRAajcqVf-23" value="" style="endArrow=classic;html=1;rounded=0;entryX=0;entryY=0.5;entryDx=0;entryDy=0;exitX=1;exitY=0.5;exitDx=0;exitDy=0;" edge="1" parent="sSLa41Jm4dLuRAajcqVf-1" source="sSLa41Jm4dLuRAajcqVf-8" target="sSLa41Jm4dLuRAajcqVf-5">
          <mxGeometry width="50" height="50" relative="1" as="geometry">
            <mxPoint x="471.5" y="-675" as="sourcePoint" />
            <mxPoint x="521.5" y="-725" as="targetPoint" />
          </mxGeometry>
        </mxCell>
        <mxCell id="sSLa41Jm4dLuRAajcqVf-24" value="" style="endArrow=classic;html=1;rounded=0;entryX=0;entryY=0;entryDx=0;entryDy=85;entryPerimeter=0;exitX=1;exitY=0.5;exitDx=0;exitDy=0;" edge="1" parent="sSLa41Jm4dLuRAajcqVf-1" source="sSLa41Jm4dLuRAajcqVf-5" target="sSLa41Jm4dLuRAajcqVf-20">
          <mxGeometry width="50" height="50" relative="1" as="geometry">
            <mxPoint x="211.5" y="-305" as="sourcePoint" />
            <mxPoint x="261.5" y="-355" as="targetPoint" />
          </mxGeometry>
        </mxCell>
        <mxCell id="sSLa41Jm4dLuRAajcqVf-25" value="" style="endArrow=classic;html=1;rounded=0;entryX=0.5;entryY=1;entryDx=0;entryDy=0;exitX=0.25;exitY=0;exitDx=0;exitDy=0;" edge="1" parent="sSLa41Jm4dLuRAajcqVf-1" source="sSLa41Jm4dLuRAajcqVf-14" target="sSLa41Jm4dLuRAajcqVf-8">
          <mxGeometry width="50" height="50" relative="1" as="geometry">
            <mxPoint x="191.5" y="-375" as="sourcePoint" />
            <mxPoint x="241.5" y="-425" as="targetPoint" />
          </mxGeometry>
        </mxCell>
        <mxCell id="sSLa41Jm4dLuRAajcqVf-26" value="" style="endArrow=classic;html=1;rounded=0;entryX=0;entryY=0;entryDx=55;entryDy=0;entryPerimeter=0;exitX=0.5;exitY=1;exitDx=0;exitDy=0;" edge="1" parent="sSLa41Jm4dLuRAajcqVf-1" source="sSLa41Jm4dLuRAajcqVf-14" target="sSLa41Jm4dLuRAajcqVf-15">
          <mxGeometry width="50" height="50" relative="1" as="geometry">
            <mxPoint x="111.5" y="-225" as="sourcePoint" />
            <mxPoint x="161.5" y="-275" as="targetPoint" />
          </mxGeometry>
        </mxCell>
        <mxCell id="sSLa41Jm4dLuRAajcqVf-27" value="metrics" style="shape=folder;fontStyle=1;tabWidth=110;tabHeight=30;tabPosition=left;html=1;boundedLbl=1;labelInHeader=1;container=1;collapsible=0;whiteSpace=wrap;" vertex="1" parent="sSLa41Jm4dLuRAajcqVf-1">
          <mxGeometry x="450" y="210" width="160" height="100" as="geometry" />
        </mxCell>
        <mxCell id="sSLa41Jm4dLuRAajcqVf-28" value="" style="html=1;strokeColor=none;resizeWidth=1;resizeHeight=1;fillColor=none;part=1;connectable=0;allowArrows=0;deletable=0;whiteSpace=wrap;" vertex="1" parent="sSLa41Jm4dLuRAajcqVf-27">
          <mxGeometry width="160" height="70.00000000000001" relative="1" as="geometry">
            <mxPoint y="30" as="offset" />
          </mxGeometry>
        </mxCell>
        <mxCell id="sSLa41Jm4dLuRAajcqVf-29" value="metrics.js" style="html=1;whiteSpace=wrap;" vertex="1" parent="sSLa41Jm4dLuRAajcqVf-27">
          <mxGeometry x="9.170000000000073" y="50" width="141.66666666666666" height="30" as="geometry" />
        </mxCell>
        <mxCell id="sSLa41Jm4dLuRAajcqVf-30" value="" style="endArrow=classic;html=1;rounded=0;entryX=0;entryY=0.5;entryDx=0;entryDy=0;exitX=1;exitY=0.5;exitDx=0;exitDy=0;" edge="1" parent="sSLa41Jm4dLuRAajcqVf-1" source="sSLa41Jm4dLuRAajcqVf-14" target="sSLa41Jm4dLuRAajcqVf-29">
          <mxGeometry width="50" height="50" relative="1" as="geometry">
            <mxPoint x="356.5" y="220" as="sourcePoint" />
            <mxPoint x="482.5" y="210" as="targetPoint" />
          </mxGeometry>
        </mxCell>
        <mxCell id="sSLa41Jm4dLuRAajcqVf-91" value="supplies-query" style="shape=folder;fontStyle=1;tabWidth=110;tabHeight=30;tabPosition=left;html=1;boundedLbl=1;labelInHeader=1;container=1;collapsible=0;whiteSpace=wrap;" vertex="1" parent="qvupkEEIyL3yOIonO_8t-2">
          <mxGeometry x="2400" y="2200" width="891.5" height="505" as="geometry" />
        </mxCell>
        <mxCell id="sSLa41Jm4dLuRAajcqVf-92" value="" style="html=1;strokeColor=none;resizeWidth=1;resizeHeight=1;fillColor=none;part=1;connectable=0;allowArrows=0;deletable=0;whiteSpace=wrap;" vertex="1" parent="sSLa41Jm4dLuRAajcqVf-91">
          <mxGeometry width="891.4999999999999" height="318.7295081967213" relative="1" as="geometry">
            <mxPoint y="30" as="offset" />
          </mxGeometry>
        </mxCell>
        <mxCell id="sSLa41Jm4dLuRAajcqVf-93" value="controllers" style="shape=folder;fontStyle=1;tabWidth=110;tabHeight=30;tabPosition=left;html=1;boundedLbl=1;labelInHeader=1;container=1;collapsible=0;whiteSpace=wrap;" vertex="1" parent="sSLa41Jm4dLuRAajcqVf-91">
          <mxGeometry x="311.5" y="45" width="190" height="100" as="geometry" />
        </mxCell>
        <mxCell id="sSLa41Jm4dLuRAajcqVf-94" value="" style="html=1;strokeColor=none;resizeWidth=1;resizeHeight=1;fillColor=none;part=1;connectable=0;allowArrows=0;deletable=0;whiteSpace=wrap;" vertex="1" parent="sSLa41Jm4dLuRAajcqVf-93">
          <mxGeometry width="190" height="70.00000000000001" relative="1" as="geometry">
            <mxPoint y="30" as="offset" />
          </mxGeometry>
        </mxCell>
        <mxCell id="sSLa41Jm4dLuRAajcqVf-95" value="suppliesQueryController.js" style="html=1;whiteSpace=wrap;" vertex="1" parent="sSLa41Jm4dLuRAajcqVf-93">
          <mxGeometry x="10" y="40" width="170" height="30" as="geometry" />
        </mxCell>
        <mxCell id="sSLa41Jm4dLuRAajcqVf-96" value="routes" style="shape=folder;fontStyle=1;tabWidth=110;tabHeight=30;tabPosition=left;html=1;boundedLbl=1;labelInHeader=1;container=1;collapsible=0;whiteSpace=wrap;" vertex="1" parent="sSLa41Jm4dLuRAajcqVf-91">
          <mxGeometry x="11.5" y="50" width="227.68" height="90" as="geometry" />
        </mxCell>
        <mxCell id="sSLa41Jm4dLuRAajcqVf-97" value="" style="html=1;strokeColor=none;resizeWidth=1;resizeHeight=1;fillColor=none;part=1;connectable=0;allowArrows=0;deletable=0;whiteSpace=wrap;" vertex="1" parent="sSLa41Jm4dLuRAajcqVf-96">
          <mxGeometry width="227.68" height="63.00000000000001" relative="1" as="geometry">
            <mxPoint y="30" as="offset" />
          </mxGeometry>
        </mxCell>
        <mxCell id="sSLa41Jm4dLuRAajcqVf-98" value="suppliesQueryRouter.js" style="html=1;whiteSpace=wrap;" vertex="1" parent="sSLa41Jm4dLuRAajcqVf-96">
          <mxGeometry x="30" y="45" width="154.68" height="29.77" as="geometry" />
        </mxCell>
        <mxCell id="sSLa41Jm4dLuRAajcqVf-99" value="test" style="shape=folder;fontStyle=1;tabWidth=110;tabHeight=30;tabPosition=left;html=1;boundedLbl=1;labelInHeader=1;container=1;collapsible=0;whiteSpace=wrap;" vertex="1" parent="sSLa41Jm4dLuRAajcqVf-91">
          <mxGeometry x="11.5" y="150" width="130" height="160" as="geometry" />
        </mxCell>
        <mxCell id="sSLa41Jm4dLuRAajcqVf-100" value="" style="html=1;strokeColor=none;resizeWidth=1;resizeHeight=1;fillColor=none;part=1;connectable=0;allowArrows=0;deletable=0;whiteSpace=wrap;" vertex="1" parent="sSLa41Jm4dLuRAajcqVf-99">
          <mxGeometry width="130" height="112.00000000000001" relative="1" as="geometry">
            <mxPoint y="30" as="offset" />
          </mxGeometry>
        </mxCell>
        <mxCell id="sSLa41Jm4dLuRAajcqVf-101" value="suppliesQueryRouter.test.js" style="html=1;whiteSpace=wrap;" vertex="1" parent="sSLa41Jm4dLuRAajcqVf-99">
          <mxGeometry x="6.880000000000109" y="40" width="116.25" height="29.77" as="geometry" />
        </mxCell>
        <mxCell id="sSLa41Jm4dLuRAajcqVf-102" value="setupTests.js" style="html=1;whiteSpace=wrap;" vertex="1" parent="sSLa41Jm4dLuRAajcqVf-99">
          <mxGeometry x="6.880000000000109" y="100" width="116.25" height="29.77" as="geometry" />
        </mxCell>
        <mxCell id="sSLa41Jm4dLuRAajcqVf-103" value="" style="endArrow=classic;html=1;rounded=0;fontSize=12;startSize=8;endSize=8;curved=1;entryX=0.5;entryY=0;entryDx=0;entryDy=0;exitX=0.5;exitY=1;exitDx=0;exitDy=0;" edge="1" parent="sSLa41Jm4dLuRAajcqVf-99" source="sSLa41Jm4dLuRAajcqVf-101" target="sSLa41Jm4dLuRAajcqVf-102">
          <mxGeometry width="50" height="50" relative="1" as="geometry">
            <mxPoint x="-280" y="190" as="sourcePoint" />
            <mxPoint x="-230" y="140" as="targetPoint" />
          </mxGeometry>
        </mxCell>
        <mxCell id="sSLa41Jm4dLuRAajcqVf-104" value="app.js" style="html=1;whiteSpace=wrap;" vertex="1" parent="sSLa41Jm4dLuRAajcqVf-91">
          <mxGeometry x="181.5" y="180" width="141.66666666666666" height="30" as="geometry" />
        </mxCell>
        <mxCell id="sSLa41Jm4dLuRAajcqVf-105" value="utils" style="shape=folder;fontStyle=1;tabWidth=110;tabHeight=30;tabPosition=left;html=1;boundedLbl=1;labelInHeader=1;container=1;collapsible=0;whiteSpace=wrap;" vertex="1" parent="sSLa41Jm4dLuRAajcqVf-91">
          <mxGeometry x="196.5" y="250" width="160" height="220" as="geometry" />
        </mxCell>
        <mxCell id="sSLa41Jm4dLuRAajcqVf-106" value="" style="html=1;strokeColor=none;resizeWidth=1;resizeHeight=1;fillColor=none;part=1;connectable=0;allowArrows=0;deletable=0;whiteSpace=wrap;" vertex="1" parent="sSLa41Jm4dLuRAajcqVf-105">
          <mxGeometry width="160" height="154.00000000000003" relative="1" as="geometry">
            <mxPoint y="30" as="offset" />
          </mxGeometry>
        </mxCell>
        <mxCell id="sSLa41Jm4dLuRAajcqVf-107" value="logger.js" style="html=1;whiteSpace=wrap;" vertex="1" parent="sSLa41Jm4dLuRAajcqVf-105">
          <mxGeometry x="9.170000000000073" y="38.76923076923077" width="141.66666666666666" height="33.84615384615385" as="geometry" />
        </mxCell>
        <mxCell id="sSLa41Jm4dLuRAajcqVf-108" value="redisClient.js" style="html=1;whiteSpace=wrap;" vertex="1" parent="sSLa41Jm4dLuRAajcqVf-105">
          <mxGeometry x="9.170000000000073" y="86.17948717948718" width="141.66666666666666" height="33.84615384615385" as="geometry" />
        </mxCell>
        <mxCell id="sSLa41Jm4dLuRAajcqVf-109" value="authentication.js" style="html=1;whiteSpace=wrap;" vertex="1" parent="sSLa41Jm4dLuRAajcqVf-105">
          <mxGeometry x="9.170000000000073" y="134.94871794871796" width="141.66666666666666" height="33.84615384615385" as="geometry" />
        </mxCell>
        <mxCell id="sSLa41Jm4dLuRAajcqVf-142" value="consumer.js" style="html=1;whiteSpace=wrap;" vertex="1" parent="sSLa41Jm4dLuRAajcqVf-105">
          <mxGeometry x="9.170000000000073" y="180" width="141.66666666666666" height="33.84615384615385" as="geometry" />
        </mxCell>
        <mxCell id="sSLa41Jm4dLuRAajcqVf-110" value="models" style="shape=folder;fontStyle=1;tabWidth=110;tabHeight=30;tabPosition=left;html=1;boundedLbl=1;labelInHeader=1;container=1;collapsible=0;whiteSpace=wrap;" vertex="1" parent="sSLa41Jm4dLuRAajcqVf-91">
          <mxGeometry x="591.5" y="45" width="227.68" height="125" as="geometry" />
        </mxCell>
        <mxCell id="sSLa41Jm4dLuRAajcqVf-111" value="" style="html=1;strokeColor=none;resizeWidth=1;resizeHeight=1;fillColor=none;part=1;connectable=0;allowArrows=0;deletable=0;whiteSpace=wrap;" vertex="1" parent="sSLa41Jm4dLuRAajcqVf-110">
          <mxGeometry width="227.68" height="87.50000000000003" relative="1" as="geometry">
            <mxPoint y="30" as="offset" />
          </mxGeometry>
        </mxCell>
        <mxCell id="sSLa41Jm4dLuRAajcqVf-112" value="SupplyProjection.js" style="html=1;whiteSpace=wrap;" vertex="1" parent="sSLa41Jm4dLuRAajcqVf-110">
          <mxGeometry x="43.00227272727261" y="59.5814936324532" width="141.66666666666666" height="35.422113519439996" as="geometry" />
        </mxCell>
        <mxCell id="sSLa41Jm4dLuRAajcqVf-113" value="" style="endArrow=classic;html=1;rounded=0;entryX=0;entryY=0.5;entryDx=0;entryDy=0;exitX=1;exitY=0.5;exitDx=0;exitDy=0;" edge="1" parent="sSLa41Jm4dLuRAajcqVf-91" source="sSLa41Jm4dLuRAajcqVf-98" target="sSLa41Jm4dLuRAajcqVf-95">
          <mxGeometry width="50" height="50" relative="1" as="geometry">
            <mxPoint x="471.5" y="-675" as="sourcePoint" />
            <mxPoint x="521.5" y="-725" as="targetPoint" />
          </mxGeometry>
        </mxCell>
        <mxCell id="sSLa41Jm4dLuRAajcqVf-114" value="" style="endArrow=classic;html=1;rounded=0;entryX=0;entryY=0;entryDx=0;entryDy=85;entryPerimeter=0;exitX=1;exitY=0.5;exitDx=0;exitDy=0;" edge="1" parent="sSLa41Jm4dLuRAajcqVf-91" source="sSLa41Jm4dLuRAajcqVf-95" target="sSLa41Jm4dLuRAajcqVf-110">
          <mxGeometry width="50" height="50" relative="1" as="geometry">
            <mxPoint x="211.5" y="-305" as="sourcePoint" />
            <mxPoint x="261.5" y="-355" as="targetPoint" />
          </mxGeometry>
        </mxCell>
        <mxCell id="sSLa41Jm4dLuRAajcqVf-115" value="" style="endArrow=classic;html=1;rounded=0;entryX=0.5;entryY=1;entryDx=0;entryDy=0;exitX=0.25;exitY=0;exitDx=0;exitDy=0;" edge="1" parent="sSLa41Jm4dLuRAajcqVf-91" source="sSLa41Jm4dLuRAajcqVf-104" target="sSLa41Jm4dLuRAajcqVf-98">
          <mxGeometry width="50" height="50" relative="1" as="geometry">
            <mxPoint x="191.5" y="-375" as="sourcePoint" />
            <mxPoint x="241.5" y="-425" as="targetPoint" />
          </mxGeometry>
        </mxCell>
        <mxCell id="sSLa41Jm4dLuRAajcqVf-116" value="" style="endArrow=classic;html=1;rounded=0;entryX=0;entryY=0;entryDx=55;entryDy=0;entryPerimeter=0;exitX=0.5;exitY=1;exitDx=0;exitDy=0;" edge="1" parent="sSLa41Jm4dLuRAajcqVf-91" source="sSLa41Jm4dLuRAajcqVf-104" target="sSLa41Jm4dLuRAajcqVf-105">
          <mxGeometry width="50" height="50" relative="1" as="geometry">
            <mxPoint x="111.5" y="-225" as="sourcePoint" />
            <mxPoint x="161.5" y="-275" as="targetPoint" />
          </mxGeometry>
        </mxCell>
        <mxCell id="sSLa41Jm4dLuRAajcqVf-117" value="metrics" style="shape=folder;fontStyle=1;tabWidth=110;tabHeight=30;tabPosition=left;html=1;boundedLbl=1;labelInHeader=1;container=1;collapsible=0;whiteSpace=wrap;" vertex="1" parent="sSLa41Jm4dLuRAajcqVf-91">
          <mxGeometry x="450" y="210" width="160" height="100" as="geometry" />
        </mxCell>
        <mxCell id="sSLa41Jm4dLuRAajcqVf-118" value="" style="html=1;strokeColor=none;resizeWidth=1;resizeHeight=1;fillColor=none;part=1;connectable=0;allowArrows=0;deletable=0;whiteSpace=wrap;" vertex="1" parent="sSLa41Jm4dLuRAajcqVf-117">
          <mxGeometry width="160" height="70.00000000000001" relative="1" as="geometry">
            <mxPoint y="30" as="offset" />
          </mxGeometry>
        </mxCell>
        <mxCell id="sSLa41Jm4dLuRAajcqVf-119" value="metrics.js" style="html=1;whiteSpace=wrap;" vertex="1" parent="sSLa41Jm4dLuRAajcqVf-117">
          <mxGeometry x="9.170000000000073" y="50" width="141.66666666666666" height="30" as="geometry" />
        </mxCell>
        <mxCell id="sSLa41Jm4dLuRAajcqVf-120" value="" style="endArrow=classic;html=1;rounded=0;entryX=0;entryY=0.5;entryDx=0;entryDy=0;exitX=1;exitY=0.5;exitDx=0;exitDy=0;" edge="1" parent="sSLa41Jm4dLuRAajcqVf-91" source="sSLa41Jm4dLuRAajcqVf-104" target="sSLa41Jm4dLuRAajcqVf-119">
          <mxGeometry width="50" height="50" relative="1" as="geometry">
            <mxPoint x="356.5" y="220" as="sourcePoint" />
            <mxPoint x="482.5" y="210" as="targetPoint" />
          </mxGeometry>
        </mxCell>
        <mxCell id="sSLa41Jm4dLuRAajcqVf-146" value="" style="endArrow=classic;html=1;rounded=0;entryX=0.462;entryY=0.069;entryDx=0;entryDy=0;entryPerimeter=0;exitX=0;exitY=0;exitDx=891.5;exitDy=504.99999999999994;exitPerimeter=0;" edge="1" parent="qvupkEEIyL3yOIonO_8t-2" target="sSLa41Jm4dLuRAajcqVf-91">
          <mxGeometry width="50" height="50" relative="1" as="geometry">
            <mxPoint x="2771.5" y="1085" as="sourcePoint" />
            <mxPoint x="2900.75" y="1680" as="targetPoint" />
          </mxGeometry>
        </mxCell>
        <mxCell id="DA0B7YCuPKVyL4LPeDN6-1" value="auth" style="shape=folder;fontStyle=1;tabWidth=110;tabHeight=30;tabPosition=left;html=1;boundedLbl=1;labelInHeader=1;container=1;collapsible=0;whiteSpace=wrap;" parent="1" vertex="1">
          <mxGeometry x="1930" y="130" width="891.5" height="505" as="geometry" />
        </mxCell>
        <mxCell id="DA0B7YCuPKVyL4LPeDN6-2" value="" style="html=1;strokeColor=none;resizeWidth=1;resizeHeight=1;fillColor=none;part=1;connectable=0;allowArrows=0;deletable=0;whiteSpace=wrap;" parent="DA0B7YCuPKVyL4LPeDN6-1" vertex="1">
          <mxGeometry width="891.4999999999999" height="318.7295081967213" relative="1" as="geometry">
            <mxPoint y="30" as="offset" />
          </mxGeometry>
        </mxCell>
        <mxCell id="DA0B7YCuPKVyL4LPeDN6-50" value="controllers" style="shape=folder;fontStyle=1;tabWidth=110;tabHeight=30;tabPosition=left;html=1;boundedLbl=1;labelInHeader=1;container=1;collapsible=0;whiteSpace=wrap;" parent="DA0B7YCuPKVyL4LPeDN6-1" vertex="1">
          <mxGeometry x="311.5" y="45" width="190" height="100" as="geometry" />
        </mxCell>
        <mxCell id="DA0B7YCuPKVyL4LPeDN6-51" value="" style="html=1;strokeColor=none;resizeWidth=1;resizeHeight=1;fillColor=none;part=1;connectable=0;allowArrows=0;deletable=0;whiteSpace=wrap;" parent="DA0B7YCuPKVyL4LPeDN6-50" vertex="1">
          <mxGeometry width="190" height="70.00000000000001" relative="1" as="geometry">
            <mxPoint y="30" as="offset" />
          </mxGeometry>
        </mxCell>
        <mxCell id="DA0B7YCuPKVyL4LPeDN6-52" value="authController.js" style="html=1;whiteSpace=wrap;" parent="DA0B7YCuPKVyL4LPeDN6-50" vertex="1">
          <mxGeometry x="24.165151515151592" y="40" width="141.66666666666666" height="30" as="geometry" />
        </mxCell>
        <mxCell id="qvupkEEIyL3yOIonO_8t-10" value="routes" style="shape=folder;fontStyle=1;tabWidth=110;tabHeight=30;tabPosition=left;html=1;boundedLbl=1;labelInHeader=1;container=1;collapsible=0;whiteSpace=wrap;" parent="DA0B7YCuPKVyL4LPeDN6-1" vertex="1">
          <mxGeometry x="11.5" y="50" width="227.68" height="90" as="geometry" />
        </mxCell>
        <mxCell id="qvupkEEIyL3yOIonO_8t-11" value="" style="html=1;strokeColor=none;resizeWidth=1;resizeHeight=1;fillColor=none;part=1;connectable=0;allowArrows=0;deletable=0;whiteSpace=wrap;" parent="qvupkEEIyL3yOIonO_8t-10" vertex="1">
          <mxGeometry width="227.68" height="63.00000000000001" relative="1" as="geometry">
            <mxPoint y="30" as="offset" />
          </mxGeometry>
        </mxCell>
        <mxCell id="qvupkEEIyL3yOIonO_8t-23" value="authRouter.js" style="html=1;whiteSpace=wrap;" parent="qvupkEEIyL3yOIonO_8t-10" vertex="1">
          <mxGeometry x="43.011515151515596" y="45" width="141.66666666666666" height="29.77" as="geometry" />
        </mxCell>
        <mxCell id="DA0B7YCuPKVyL4LPeDN6-41" value="test" style="shape=folder;fontStyle=1;tabWidth=110;tabHeight=30;tabPosition=left;html=1;boundedLbl=1;labelInHeader=1;container=1;collapsible=0;whiteSpace=wrap;" parent="DA0B7YCuPKVyL4LPeDN6-1" vertex="1">
          <mxGeometry x="11.5" y="150" width="130" height="160" as="geometry" />
        </mxCell>
        <mxCell id="DA0B7YCuPKVyL4LPeDN6-42" value="" style="html=1;strokeColor=none;resizeWidth=1;resizeHeight=1;fillColor=none;part=1;connectable=0;allowArrows=0;deletable=0;whiteSpace=wrap;" parent="DA0B7YCuPKVyL4LPeDN6-41" vertex="1">
          <mxGeometry width="130" height="112.00000000000001" relative="1" as="geometry">
            <mxPoint y="30" as="offset" />
          </mxGeometry>
        </mxCell>
        <mxCell id="DA0B7YCuPKVyL4LPeDN6-43" value="authRouter.test.js" style="html=1;whiteSpace=wrap;" parent="DA0B7YCuPKVyL4LPeDN6-41" vertex="1">
          <mxGeometry x="6.880000000000109" y="40" width="116.25" height="29.77" as="geometry" />
        </mxCell>
        <mxCell id="DA0B7YCuPKVyL4LPeDN6-46" value="setupTests.js" style="html=1;whiteSpace=wrap;" parent="DA0B7YCuPKVyL4LPeDN6-41" vertex="1">
          <mxGeometry x="6.880000000000109" y="100" width="116.25" height="29.77" as="geometry" />
        </mxCell>
        <mxCell id="DA0B7YCuPKVyL4LPeDN6-49" value="" style="endArrow=classic;html=1;rounded=0;fontSize=12;startSize=8;endSize=8;curved=1;entryX=0.5;entryY=0;entryDx=0;entryDy=0;exitX=0.5;exitY=1;exitDx=0;exitDy=0;" parent="DA0B7YCuPKVyL4LPeDN6-41" source="DA0B7YCuPKVyL4LPeDN6-43" target="DA0B7YCuPKVyL4LPeDN6-46" edge="1">
          <mxGeometry width="50" height="50" relative="1" as="geometry">
            <mxPoint x="-280" y="190" as="sourcePoint" />
            <mxPoint x="-230" y="140" as="targetPoint" />
          </mxGeometry>
        </mxCell>
        <mxCell id="DA0B7YCuPKVyL4LPeDN6-56" value="app.js" style="html=1;whiteSpace=wrap;" parent="DA0B7YCuPKVyL4LPeDN6-1" vertex="1">
          <mxGeometry x="181.5" y="180" width="141.66666666666666" height="30" as="geometry" />
        </mxCell>
        <mxCell id="DA0B7YCuPKVyL4LPeDN6-58" value="utils" style="shape=folder;fontStyle=1;tabWidth=110;tabHeight=30;tabPosition=left;html=1;boundedLbl=1;labelInHeader=1;container=1;collapsible=0;whiteSpace=wrap;" parent="DA0B7YCuPKVyL4LPeDN6-1" vertex="1">
          <mxGeometry x="196.5" y="250" width="160" height="195" as="geometry" />
        </mxCell>
        <mxCell id="DA0B7YCuPKVyL4LPeDN6-59" value="" style="html=1;strokeColor=none;resizeWidth=1;resizeHeight=1;fillColor=none;part=1;connectable=0;allowArrows=0;deletable=0;whiteSpace=wrap;" parent="DA0B7YCuPKVyL4LPeDN6-58" vertex="1">
          <mxGeometry width="160" height="136.50000000000003" relative="1" as="geometry">
            <mxPoint y="30" as="offset" />
          </mxGeometry>
        </mxCell>
        <mxCell id="DA0B7YCuPKVyL4LPeDN6-60" value="logger.js" style="html=1;whiteSpace=wrap;" parent="DA0B7YCuPKVyL4LPeDN6-58" vertex="1">
          <mxGeometry x="9.170000000000073" y="45" width="141.66666666666666" height="30" as="geometry" />
        </mxCell>
        <mxCell id="DA0B7YCuPKVyL4LPeDN6-61" value="redisClient.js" style="html=1;whiteSpace=wrap;" parent="DA0B7YCuPKVyL4LPeDN6-58" vertex="1">
          <mxGeometry x="9.170000000000073" y="95" width="141.66666666666666" height="30" as="geometry" />
        </mxCell>
        <mxCell id="DA0B7YCuPKVyL4LPeDN6-63" value="initDb.js" style="html=1;whiteSpace=wrap;" parent="DA0B7YCuPKVyL4LPeDN6-1" vertex="1">
          <mxGeometry x="391.5" y="180" width="141.66666666666666" height="30" as="geometry" />
        </mxCell>
        <mxCell id="mD9Tr-Q8xh2cB8FxRo_p-1" value="models" style="shape=folder;fontStyle=1;tabWidth=110;tabHeight=30;tabPosition=left;html=1;boundedLbl=1;labelInHeader=1;container=1;collapsible=0;whiteSpace=wrap;" parent="DA0B7YCuPKVyL4LPeDN6-1" vertex="1">
          <mxGeometry x="591.5" y="45" width="227.68" height="140" as="geometry" />
        </mxCell>
        <mxCell id="mD9Tr-Q8xh2cB8FxRo_p-2" value="" style="html=1;strokeColor=none;resizeWidth=1;resizeHeight=1;fillColor=none;part=1;connectable=0;allowArrows=0;deletable=0;whiteSpace=wrap;" parent="mD9Tr-Q8xh2cB8FxRo_p-1" vertex="1">
          <mxGeometry width="227.68" height="98.00000000000003" relative="1" as="geometry">
            <mxPoint y="30" as="offset" />
          </mxGeometry>
        </mxCell>
        <mxCell id="mD9Tr-Q8xh2cB8FxRo_p-3" value="Store.js" style="html=1;whiteSpace=wrap;" parent="mD9Tr-Q8xh2cB8FxRo_p-1" vertex="1">
          <mxGeometry x="43.00227272727261" y="40.001493632453275" width="141.66666666666666" height="35.422113519439996" as="geometry" />
        </mxCell>
        <mxCell id="mD9Tr-Q8xh2cB8FxRo_p-7" value="User.js" style="html=1;whiteSpace=wrap;" parent="mD9Tr-Q8xh2cB8FxRo_p-1" vertex="1">
          <mxGeometry x="43.00227272727261" y="90" width="141.66666666666666" height="35.422113519439996" as="geometry" />
        </mxCell>
        <mxCell id="DA0B7YCuPKVyL4LPeDN6-55" value="" style="endArrow=classic;html=1;rounded=0;entryX=0;entryY=0.5;entryDx=0;entryDy=0;exitX=1;exitY=0.5;exitDx=0;exitDy=0;" parent="DA0B7YCuPKVyL4LPeDN6-1" source="qvupkEEIyL3yOIonO_8t-23" target="DA0B7YCuPKVyL4LPeDN6-52" edge="1">
          <mxGeometry width="50" height="50" relative="1" as="geometry">
            <mxPoint x="471.5" y="-675" as="sourcePoint" />
            <mxPoint x="521.5" y="-725" as="targetPoint" />
          </mxGeometry>
        </mxCell>
        <mxCell id="mD9Tr-Q8xh2cB8FxRo_p-8" value="" style="endArrow=classic;html=1;rounded=0;entryX=0;entryY=0;entryDx=0;entryDy=85;entryPerimeter=0;exitX=1;exitY=0.5;exitDx=0;exitDy=0;" parent="DA0B7YCuPKVyL4LPeDN6-1" source="DA0B7YCuPKVyL4LPeDN6-52" target="mD9Tr-Q8xh2cB8FxRo_p-1" edge="1">
          <mxGeometry width="50" height="50" relative="1" as="geometry">
            <mxPoint x="211.5" y="-305" as="sourcePoint" />
            <mxPoint x="261.5" y="-355" as="targetPoint" />
          </mxGeometry>
        </mxCell>
        <mxCell id="DA0B7YCuPKVyL4LPeDN6-57" value="" style="endArrow=classic;html=1;rounded=0;entryX=0.5;entryY=1;entryDx=0;entryDy=0;exitX=0.25;exitY=0;exitDx=0;exitDy=0;" parent="DA0B7YCuPKVyL4LPeDN6-1" source="DA0B7YCuPKVyL4LPeDN6-56" target="qvupkEEIyL3yOIonO_8t-23" edge="1">
          <mxGeometry width="50" height="50" relative="1" as="geometry">
            <mxPoint x="191.5" y="-375" as="sourcePoint" />
            <mxPoint x="241.5" y="-425" as="targetPoint" />
          </mxGeometry>
        </mxCell>
        <mxCell id="DA0B7YCuPKVyL4LPeDN6-62" value="" style="endArrow=classic;html=1;rounded=0;entryX=0;entryY=0;entryDx=55;entryDy=0;entryPerimeter=0;exitX=0.5;exitY=1;exitDx=0;exitDy=0;" parent="DA0B7YCuPKVyL4LPeDN6-1" source="DA0B7YCuPKVyL4LPeDN6-56" target="DA0B7YCuPKVyL4LPeDN6-58" edge="1">
          <mxGeometry width="50" height="50" relative="1" as="geometry">
            <mxPoint x="111.5" y="-225" as="sourcePoint" />
            <mxPoint x="161.5" y="-275" as="targetPoint" />
          </mxGeometry>
        </mxCell>
        <mxCell id="DA0B7YCuPKVyL4LPeDN6-64" value="" style="endArrow=classic;html=1;rounded=0;entryX=0;entryY=0.5;entryDx=0;entryDy=0;exitX=1;exitY=0.5;exitDx=0;exitDy=0;" parent="DA0B7YCuPKVyL4LPeDN6-1" source="DA0B7YCuPKVyL4LPeDN6-56" target="DA0B7YCuPKVyL4LPeDN6-63" edge="1">
          <mxGeometry width="50" height="50" relative="1" as="geometry">
            <mxPoint x="151.5" y="-245" as="sourcePoint" />
            <mxPoint x="201.5" y="-295" as="targetPoint" />
          </mxGeometry>
        </mxCell>
        <mxCell id="mD9Tr-Q8xh2cB8FxRo_p-9" value="supplies" style="shape=folder;fontStyle=1;tabWidth=110;tabHeight=30;tabPosition=left;html=1;boundedLbl=1;labelInHeader=1;container=1;collapsible=0;whiteSpace=wrap;" parent="1" vertex="1">
          <mxGeometry x="1930" y="680" width="891.5" height="505" as="geometry" />
        </mxCell>
        <mxCell id="mD9Tr-Q8xh2cB8FxRo_p-10" value="" style="html=1;strokeColor=none;resizeWidth=1;resizeHeight=1;fillColor=none;part=1;connectable=0;allowArrows=0;deletable=0;whiteSpace=wrap;" parent="mD9Tr-Q8xh2cB8FxRo_p-9" vertex="1">
          <mxGeometry width="891.4999999999999" height="318.7295081967213" relative="1" as="geometry">
            <mxPoint y="30" as="offset" />
          </mxGeometry>
        </mxCell>
        <mxCell id="mD9Tr-Q8xh2cB8FxRo_p-11" value="controllers" style="shape=folder;fontStyle=1;tabWidth=110;tabHeight=30;tabPosition=left;html=1;boundedLbl=1;labelInHeader=1;container=1;collapsible=0;whiteSpace=wrap;" parent="mD9Tr-Q8xh2cB8FxRo_p-9" vertex="1">
          <mxGeometry x="311.5" y="45" width="190" height="100" as="geometry" />
        </mxCell>
        <mxCell id="mD9Tr-Q8xh2cB8FxRo_p-12" value="" style="html=1;strokeColor=none;resizeWidth=1;resizeHeight=1;fillColor=none;part=1;connectable=0;allowArrows=0;deletable=0;whiteSpace=wrap;" parent="mD9Tr-Q8xh2cB8FxRo_p-11" vertex="1">
          <mxGeometry width="190" height="70.00000000000001" relative="1" as="geometry">
            <mxPoint y="30" as="offset" />
          </mxGeometry>
        </mxCell>
        <mxCell id="mD9Tr-Q8xh2cB8FxRo_p-13" value="suppliesController.js" style="html=1;whiteSpace=wrap;" parent="mD9Tr-Q8xh2cB8FxRo_p-11" vertex="1">
          <mxGeometry x="24.165151515151592" y="40" width="141.66666666666666" height="30" as="geometry" />
        </mxCell>
        <mxCell id="mD9Tr-Q8xh2cB8FxRo_p-14" value="routes" style="shape=folder;fontStyle=1;tabWidth=110;tabHeight=30;tabPosition=left;html=1;boundedLbl=1;labelInHeader=1;container=1;collapsible=0;whiteSpace=wrap;" parent="mD9Tr-Q8xh2cB8FxRo_p-9" vertex="1">
          <mxGeometry x="11.5" y="50" width="227.68" height="90" as="geometry" />
        </mxCell>
        <mxCell id="mD9Tr-Q8xh2cB8FxRo_p-15" value="" style="html=1;strokeColor=none;resizeWidth=1;resizeHeight=1;fillColor=none;part=1;connectable=0;allowArrows=0;deletable=0;whiteSpace=wrap;" parent="mD9Tr-Q8xh2cB8FxRo_p-14" vertex="1">
          <mxGeometry width="227.68" height="63.00000000000001" relative="1" as="geometry">
            <mxPoint y="30" as="offset" />
          </mxGeometry>
        </mxCell>
        <mxCell id="mD9Tr-Q8xh2cB8FxRo_p-16" value="suppliesRouter.js" style="html=1;whiteSpace=wrap;" parent="mD9Tr-Q8xh2cB8FxRo_p-14" vertex="1">
          <mxGeometry x="43.011515151515596" y="45" width="141.66666666666666" height="29.77" as="geometry" />
        </mxCell>
        <mxCell id="mD9Tr-Q8xh2cB8FxRo_p-17" value="test" style="shape=folder;fontStyle=1;tabWidth=110;tabHeight=30;tabPosition=left;html=1;boundedLbl=1;labelInHeader=1;container=1;collapsible=0;whiteSpace=wrap;" parent="mD9Tr-Q8xh2cB8FxRo_p-9" vertex="1">
          <mxGeometry x="11.5" y="150" width="130" height="160" as="geometry" />
        </mxCell>
        <mxCell id="mD9Tr-Q8xh2cB8FxRo_p-18" value="" style="html=1;strokeColor=none;resizeWidth=1;resizeHeight=1;fillColor=none;part=1;connectable=0;allowArrows=0;deletable=0;whiteSpace=wrap;" parent="mD9Tr-Q8xh2cB8FxRo_p-17" vertex="1">
          <mxGeometry width="130" height="112.00000000000001" relative="1" as="geometry">
            <mxPoint y="30" as="offset" />
          </mxGeometry>
        </mxCell>
        <mxCell id="mD9Tr-Q8xh2cB8FxRo_p-19" value="suppliesRouter.test.js" style="html=1;whiteSpace=wrap;" parent="mD9Tr-Q8xh2cB8FxRo_p-17" vertex="1">
          <mxGeometry x="6.880000000000109" y="40" width="116.25" height="29.77" as="geometry" />
        </mxCell>
        <mxCell id="mD9Tr-Q8xh2cB8FxRo_p-20" value="setupTests.js" style="html=1;whiteSpace=wrap;" parent="mD9Tr-Q8xh2cB8FxRo_p-17" vertex="1">
          <mxGeometry x="6.880000000000109" y="100" width="116.25" height="29.77" as="geometry" />
        </mxCell>
        <mxCell id="mD9Tr-Q8xh2cB8FxRo_p-21" value="" style="endArrow=classic;html=1;rounded=0;fontSize=12;startSize=8;endSize=8;curved=1;entryX=0.5;entryY=0;entryDx=0;entryDy=0;exitX=0.5;exitY=1;exitDx=0;exitDy=0;" parent="mD9Tr-Q8xh2cB8FxRo_p-17" source="mD9Tr-Q8xh2cB8FxRo_p-19" target="mD9Tr-Q8xh2cB8FxRo_p-20" edge="1">
          <mxGeometry width="50" height="50" relative="1" as="geometry">
            <mxPoint x="-280" y="190" as="sourcePoint" />
            <mxPoint x="-230" y="140" as="targetPoint" />
          </mxGeometry>
        </mxCell>
        <mxCell id="mD9Tr-Q8xh2cB8FxRo_p-22" value="app.js" style="html=1;whiteSpace=wrap;" parent="mD9Tr-Q8xh2cB8FxRo_p-9" vertex="1">
          <mxGeometry x="181.5" y="180" width="141.66666666666666" height="30" as="geometry" />
        </mxCell>
        <mxCell id="mD9Tr-Q8xh2cB8FxRo_p-23" value="utils" style="shape=folder;fontStyle=1;tabWidth=110;tabHeight=30;tabPosition=left;html=1;boundedLbl=1;labelInHeader=1;container=1;collapsible=0;whiteSpace=wrap;" parent="mD9Tr-Q8xh2cB8FxRo_p-9" vertex="1">
          <mxGeometry x="196.5" y="250" width="160" height="230" as="geometry" />
        </mxCell>
        <mxCell id="mD9Tr-Q8xh2cB8FxRo_p-24" value="" style="html=1;strokeColor=none;resizeWidth=1;resizeHeight=1;fillColor=none;part=1;connectable=0;allowArrows=0;deletable=0;whiteSpace=wrap;" parent="mD9Tr-Q8xh2cB8FxRo_p-23" vertex="1">
          <mxGeometry width="160" height="161.00000000000003" relative="1" as="geometry">
            <mxPoint y="30" as="offset" />
          </mxGeometry>
        </mxCell>
        <mxCell id="mD9Tr-Q8xh2cB8FxRo_p-25" value="logger.js" style="html=1;whiteSpace=wrap;" parent="mD9Tr-Q8xh2cB8FxRo_p-23" vertex="1">
          <mxGeometry x="9.170000000000073" y="39.99692307692308" width="141.66666666666666" height="35.38461538461539" as="geometry" />
        </mxCell>
        <mxCell id="mD9Tr-Q8xh2cB8FxRo_p-26" value="redisClient.js" style="html=1;whiteSpace=wrap;" parent="mD9Tr-Q8xh2cB8FxRo_p-23" vertex="1">
          <mxGeometry x="9.170000000000073" y="90.00128205128206" width="141.66666666666666" height="35.38461538461539" as="geometry" />
        </mxCell>
        <mxCell id="mD9Tr-Q8xh2cB8FxRo_p-37" value="authentication.js" style="html=1;whiteSpace=wrap;" parent="mD9Tr-Q8xh2cB8FxRo_p-23" vertex="1">
          <mxGeometry x="9.170000000000073" y="134.99820512820514" width="141.66666666666666" height="35.38461538461539" as="geometry" />
        </mxCell>
        <mxCell id="sSLa41Jm4dLuRAajcqVf-148" value="eventPublisher.js" style="html=1;whiteSpace=wrap;" vertex="1" parent="mD9Tr-Q8xh2cB8FxRo_p-23">
          <mxGeometry x="9.170000000000073" y="180" width="141.66666666666666" height="33.84615384615385" as="geometry" />
        </mxCell>
        <mxCell id="mD9Tr-Q8xh2cB8FxRo_p-27" value="initDb.js" style="html=1;whiteSpace=wrap;" parent="mD9Tr-Q8xh2cB8FxRo_p-9" vertex="1">
          <mxGeometry x="391.5" y="180" width="141.66666666666666" height="30" as="geometry" />
        </mxCell>
        <mxCell id="mD9Tr-Q8xh2cB8FxRo_p-28" value="models" style="shape=folder;fontStyle=1;tabWidth=110;tabHeight=30;tabPosition=left;html=1;boundedLbl=1;labelInHeader=1;container=1;collapsible=0;whiteSpace=wrap;" parent="mD9Tr-Q8xh2cB8FxRo_p-9" vertex="1">
          <mxGeometry x="591.5" y="45" width="227.68" height="140" as="geometry" />
        </mxCell>
        <mxCell id="mD9Tr-Q8xh2cB8FxRo_p-29" value="" style="html=1;strokeColor=none;resizeWidth=1;resizeHeight=1;fillColor=none;part=1;connectable=0;allowArrows=0;deletable=0;whiteSpace=wrap;" parent="mD9Tr-Q8xh2cB8FxRo_p-28" vertex="1">
          <mxGeometry width="227.68" height="98.00000000000003" relative="1" as="geometry">
            <mxPoint y="30" as="offset" />
          </mxGeometry>
        </mxCell>
        <mxCell id="mD9Tr-Q8xh2cB8FxRo_p-30" value="Store.js" style="html=1;whiteSpace=wrap;" parent="mD9Tr-Q8xh2cB8FxRo_p-28" vertex="1">
          <mxGeometry x="43.00227272727261" y="40.001493632453275" width="141.66666666666666" height="35.422113519439996" as="geometry" />
        </mxCell>
        <mxCell id="mD9Tr-Q8xh2cB8FxRo_p-31" value="SupplyRequest.js" style="html=1;whiteSpace=wrap;" parent="mD9Tr-Q8xh2cB8FxRo_p-28" vertex="1">
          <mxGeometry x="43.00227272727261" y="90" width="141.66666666666666" height="35.422113519439996" as="geometry" />
        </mxCell>
        <mxCell id="mD9Tr-Q8xh2cB8FxRo_p-32" value="" style="endArrow=classic;html=1;rounded=0;entryX=0;entryY=0.5;entryDx=0;entryDy=0;exitX=1;exitY=0.5;exitDx=0;exitDy=0;" parent="mD9Tr-Q8xh2cB8FxRo_p-9" source="mD9Tr-Q8xh2cB8FxRo_p-16" target="mD9Tr-Q8xh2cB8FxRo_p-13" edge="1">
          <mxGeometry width="50" height="50" relative="1" as="geometry">
            <mxPoint x="471.5" y="-675" as="sourcePoint" />
            <mxPoint x="521.5" y="-725" as="targetPoint" />
          </mxGeometry>
        </mxCell>
        <mxCell id="mD9Tr-Q8xh2cB8FxRo_p-33" value="" style="endArrow=classic;html=1;rounded=0;entryX=0;entryY=0;entryDx=0;entryDy=85;entryPerimeter=0;exitX=1;exitY=0.5;exitDx=0;exitDy=0;" parent="mD9Tr-Q8xh2cB8FxRo_p-9" source="mD9Tr-Q8xh2cB8FxRo_p-13" target="mD9Tr-Q8xh2cB8FxRo_p-28" edge="1">
          <mxGeometry width="50" height="50" relative="1" as="geometry">
            <mxPoint x="211.5" y="-305" as="sourcePoint" />
            <mxPoint x="261.5" y="-355" as="targetPoint" />
          </mxGeometry>
        </mxCell>
        <mxCell id="mD9Tr-Q8xh2cB8FxRo_p-34" value="" style="endArrow=classic;html=1;rounded=0;entryX=0.5;entryY=1;entryDx=0;entryDy=0;exitX=0.25;exitY=0;exitDx=0;exitDy=0;" parent="mD9Tr-Q8xh2cB8FxRo_p-9" source="mD9Tr-Q8xh2cB8FxRo_p-22" target="mD9Tr-Q8xh2cB8FxRo_p-16" edge="1">
          <mxGeometry width="50" height="50" relative="1" as="geometry">
            <mxPoint x="191.5" y="-375" as="sourcePoint" />
            <mxPoint x="241.5" y="-425" as="targetPoint" />
          </mxGeometry>
        </mxCell>
        <mxCell id="mD9Tr-Q8xh2cB8FxRo_p-35" value="" style="endArrow=classic;html=1;rounded=0;entryX=0;entryY=0;entryDx=55;entryDy=0;entryPerimeter=0;exitX=0.5;exitY=1;exitDx=0;exitDy=0;" parent="mD9Tr-Q8xh2cB8FxRo_p-9" source="mD9Tr-Q8xh2cB8FxRo_p-22" target="mD9Tr-Q8xh2cB8FxRo_p-23" edge="1">
          <mxGeometry width="50" height="50" relative="1" as="geometry">
            <mxPoint x="111.5" y="-225" as="sourcePoint" />
            <mxPoint x="161.5" y="-275" as="targetPoint" />
          </mxGeometry>
        </mxCell>
        <mxCell id="mD9Tr-Q8xh2cB8FxRo_p-36" value="" style="endArrow=classic;html=1;rounded=0;entryX=0;entryY=0.5;entryDx=0;entryDy=0;exitX=1;exitY=0.5;exitDx=0;exitDy=0;" parent="mD9Tr-Q8xh2cB8FxRo_p-9" source="mD9Tr-Q8xh2cB8FxRo_p-22" target="mD9Tr-Q8xh2cB8FxRo_p-27" edge="1">
          <mxGeometry width="50" height="50" relative="1" as="geometry">
            <mxPoint x="151.5" y="-245" as="sourcePoint" />
            <mxPoint x="201.5" y="-295" as="targetPoint" />
          </mxGeometry>
        </mxCell>
        <mxCell id="mD9Tr-Q8xh2cB8FxRo_p-98" value="" style="group" parent="1" vertex="1" connectable="0">
          <mxGeometry x="4130" y="180" width="227" height="185" as="geometry" />
        </mxCell>
        <mxCell id="qvupkEEIyL3yOIonO_8t-30" value="MongoDB" style="strokeWidth=2;html=1;shape=mxgraph.flowchart.database;whiteSpace=wrap;" parent="mD9Tr-Q8xh2cB8FxRo_p-98" vertex="1">
          <mxGeometry width="227" height="185" as="geometry" />
        </mxCell>
        <mxCell id="qvupkEEIyL3yOIonO_8t-31" value="labo5" style="html=1;whiteSpace=wrap;" parent="mD9Tr-Q8xh2cB8FxRo_p-98" vertex="1">
          <mxGeometry x="59.5" y="115" width="110" height="30" as="geometry" />
        </mxCell>
        <mxCell id="mD9Tr-Q8xh2cB8FxRo_p-99" value="" style="group" parent="1" vertex="1" connectable="0">
          <mxGeometry x="2323" y="-230" width="227" height="185" as="geometry" />
        </mxCell>
        <mxCell id="mD9Tr-Q8xh2cB8FxRo_p-100" value="MongoDB" style="strokeWidth=2;html=1;shape=mxgraph.flowchart.database;whiteSpace=wrap;" parent="mD9Tr-Q8xh2cB8FxRo_p-99" vertex="1">
          <mxGeometry width="227" height="185" as="geometry" />
        </mxCell>
        <mxCell id="mD9Tr-Q8xh2cB8FxRo_p-101" value="labo5" style="html=1;whiteSpace=wrap;" parent="mD9Tr-Q8xh2cB8FxRo_p-99" vertex="1">
          <mxGeometry x="58.5" y="115" width="110" height="30" as="geometry" />
        </mxCell>
        <mxCell id="mD9Tr-Q8xh2cB8FxRo_p-102" value="" style="group" parent="1" vertex="1" connectable="0">
          <mxGeometry x="1350" y="3200" width="227" height="185" as="geometry" />
        </mxCell>
        <mxCell id="mD9Tr-Q8xh2cB8FxRo_p-103" value="MongoDB" style="strokeWidth=2;html=1;shape=mxgraph.flowchart.database;whiteSpace=wrap;" parent="mD9Tr-Q8xh2cB8FxRo_p-102" vertex="1">
          <mxGeometry width="227" height="185" as="geometry" />
        </mxCell>
        <mxCell id="mD9Tr-Q8xh2cB8FxRo_p-104" value="labo5" style="html=1;whiteSpace=wrap;" parent="mD9Tr-Q8xh2cB8FxRo_p-102" vertex="1">
          <mxGeometry x="58.5" y="115" width="110" height="30" as="geometry" />
        </mxCell>
        <mxCell id="mD9Tr-Q8xh2cB8FxRo_p-105" value="" style="group" parent="1" vertex="1" connectable="0">
          <mxGeometry x="4140" y="850" width="227" height="185" as="geometry" />
        </mxCell>
        <mxCell id="mD9Tr-Q8xh2cB8FxRo_p-106" value="MongoDB" style="strokeWidth=2;html=1;shape=mxgraph.flowchart.database;whiteSpace=wrap;" parent="mD9Tr-Q8xh2cB8FxRo_p-105" vertex="1">
          <mxGeometry width="227" height="185" as="geometry" />
        </mxCell>
        <mxCell id="mD9Tr-Q8xh2cB8FxRo_p-107" value="labo5" style="html=1;whiteSpace=wrap;" parent="mD9Tr-Q8xh2cB8FxRo_p-105" vertex="1">
          <mxGeometry x="58.5" y="115" width="110" height="30" as="geometry" />
        </mxCell>
        <mxCell id="mD9Tr-Q8xh2cB8FxRo_p-111" value="" style="endArrow=classic;html=1;rounded=0;entryX=0;entryY=0;entryDx=0;entryDy=65;entryPerimeter=0;exitX=0.474;exitY=0.053;exitDx=0;exitDy=0;exitPerimeter=0;" parent="1" source="JedbsohMpSSGX24jmu63-50" target="mD9Tr-Q8xh2cB8FxRo_p-108" edge="1">
          <mxGeometry width="50" height="50" relative="1" as="geometry">
            <mxPoint x="-550" y="790" as="sourcePoint" />
            <mxPoint x="-500" y="740" as="targetPoint" />
          </mxGeometry>
        </mxCell>
        <mxCell id="mD9Tr-Q8xh2cB8FxRo_p-108" value="krakend" style="shape=folder;fontStyle=1;tabWidth=110;tabHeight=30;tabPosition=left;html=1;boundedLbl=1;labelInHeader=1;container=1;collapsible=0;whiteSpace=wrap;" parent="1" vertex="1">
          <mxGeometry x="990" y="800" width="180" height="100" as="geometry" />
        </mxCell>
        <mxCell id="mD9Tr-Q8xh2cB8FxRo_p-109" value="" style="html=1;strokeColor=none;resizeWidth=1;resizeHeight=1;fillColor=none;part=1;connectable=0;allowArrows=0;deletable=0;whiteSpace=wrap;" parent="mD9Tr-Q8xh2cB8FxRo_p-108" vertex="1">
          <mxGeometry width="180" height="70.00000000000001" relative="1" as="geometry">
            <mxPoint y="30" as="offset" />
          </mxGeometry>
        </mxCell>
        <mxCell id="mD9Tr-Q8xh2cB8FxRo_p-110" value="krakend.json" style="html=1;whiteSpace=wrap;" parent="mD9Tr-Q8xh2cB8FxRo_p-108" vertex="1">
          <mxGeometry x="22.893301435406773" y="40" width="134.21052631578948" height="30" as="geometry" />
        </mxCell>
        <mxCell id="mD9Tr-Q8xh2cB8FxRo_p-114" value="" style="endArrow=classic;html=1;rounded=0;entryX=0.5;entryY=0;entryDx=0;entryDy=0;exitX=0.5;exitY=1;exitDx=0;exitDy=0;exitPerimeter=0;" parent="1" source="mD9Tr-Q8xh2cB8FxRo_p-108" target="mD9Tr-Q8xh2cB8FxRo_p-112" edge="1">
          <mxGeometry width="50" height="50" relative="1" as="geometry">
            <mxPoint x="1280" y="760" as="sourcePoint" />
            <mxPoint x="1330" y="710" as="targetPoint" />
          </mxGeometry>
        </mxCell>
        <mxCell id="mD9Tr-Q8xh2cB8FxRo_p-115" value="" style="endArrow=classic;html=1;rounded=0;entryX=0;entryY=0;entryDx=0;entryDy=267.5;entryPerimeter=0;exitX=0;exitY=0;exitDx=180;exitDy=65;exitPerimeter=0;" parent="1" source="mD9Tr-Q8xh2cB8FxRo_p-108" target="DA0B7YCuPKVyL4LPeDN6-1" edge="1">
          <mxGeometry width="50" height="50" relative="1" as="geometry">
            <mxPoint x="1370" y="760" as="sourcePoint" />
            <mxPoint x="1420" y="710" as="targetPoint" />
          </mxGeometry>
        </mxCell>
        <mxCell id="mD9Tr-Q8xh2cB8FxRo_p-116" value="" style="endArrow=classic;html=1;rounded=0;entryX=0;entryY=0;entryDx=0;entryDy=386.25;entryPerimeter=0;exitX=0.5;exitY=1;exitDx=0;exitDy=0;exitPerimeter=0;" parent="1" source="mD9Tr-Q8xh2cB8FxRo_p-108" target="mD9Tr-Q8xh2cB8FxRo_p-9" edge="1">
          <mxGeometry width="50" height="50" relative="1" as="geometry">
            <mxPoint x="1390" y="850" as="sourcePoint" />
            <mxPoint x="1440" y="800" as="targetPoint" />
          </mxGeometry>
        </mxCell>
        <mxCell id="mD9Tr-Q8xh2cB8FxRo_p-118" value="" style="endArrow=classic;html=1;rounded=0;exitX=0;exitY=0;exitDx=180;exitDy=65;exitPerimeter=0;entryX=0;entryY=0;entryDx=0;entryDy=30;entryPerimeter=0;" parent="1" source="mD9Tr-Q8xh2cB8FxRo_p-108" target="mD9Tr-Q8xh2cB8FxRo_p-38" edge="1">
          <mxGeometry width="50" height="50" relative="1" as="geometry">
            <mxPoint x="1590" y="650" as="sourcePoint" />
            <mxPoint x="1640" y="600" as="targetPoint" />
          </mxGeometry>
        </mxCell>
        <mxCell id="mD9Tr-Q8xh2cB8FxRo_p-119" value="" style="endArrow=classic;html=1;rounded=0;entryX=0.001;entryY=0.914;entryDx=0;entryDy=0;entryPerimeter=0;exitX=0;exitY=0;exitDx=180;exitDy=65;exitPerimeter=0;" parent="1" source="mD9Tr-Q8xh2cB8FxRo_p-108" target="mD9Tr-Q8xh2cB8FxRo_p-68" edge="1">
          <mxGeometry width="50" height="50" relative="1" as="geometry">
            <mxPoint x="1710" y="600" as="sourcePoint" />
            <mxPoint x="1760" y="550" as="targetPoint" />
          </mxGeometry>
        </mxCell>
        <mxCell id="mD9Tr-Q8xh2cB8FxRo_p-120" value="" style="endArrow=classic;html=1;rounded=0;entryX=0.5;entryY=1;entryDx=0;entryDy=0;entryPerimeter=0;exitX=0;exitY=0;exitDx=500.75;exitDy=30;exitPerimeter=0;" parent="1" source="DA0B7YCuPKVyL4LPeDN6-1" target="mD9Tr-Q8xh2cB8FxRo_p-100" edge="1">
          <mxGeometry width="50" height="50" relative="1" as="geometry">
            <mxPoint x="1530" y="-100" as="sourcePoint" />
            <mxPoint x="1580" y="-150" as="targetPoint" />
          </mxGeometry>
        </mxCell>
        <mxCell id="mD9Tr-Q8xh2cB8FxRo_p-121" value="" style="endArrow=classic;html=1;rounded=0;entryX=0;entryY=0.5;entryDx=0;entryDy=0;entryPerimeter=0;exitX=0;exitY=0;exitDx=891.5;exitDy=267.5;exitPerimeter=0;" parent="1" source="mD9Tr-Q8xh2cB8FxRo_p-68" target="qvupkEEIyL3yOIonO_8t-30" edge="1">
          <mxGeometry width="50" height="50" relative="1" as="geometry">
            <mxPoint x="3760" y="-20" as="sourcePoint" />
            <mxPoint x="3810" y="-70" as="targetPoint" />
          </mxGeometry>
        </mxCell>
        <mxCell id="mD9Tr-Q8xh2cB8FxRo_p-122" value="" style="endArrow=classic;html=1;rounded=0;entryX=0;entryY=0.5;entryDx=0;entryDy=0;entryPerimeter=0;exitX=0;exitY=0;exitDx=891.5;exitDy=267.5;exitPerimeter=0;" parent="1" source="mD9Tr-Q8xh2cB8FxRo_p-38" target="mD9Tr-Q8xh2cB8FxRo_p-106" edge="1">
          <mxGeometry width="50" height="50" relative="1" as="geometry">
            <mxPoint x="3930" y="1150" as="sourcePoint" />
            <mxPoint x="3980" y="1100" as="targetPoint" />
          </mxGeometry>
        </mxCell>
        <mxCell id="mD9Tr-Q8xh2cB8FxRo_p-123" value="" style="endArrow=classic;html=1;rounded=0;entryX=0.5;entryY=0;entryDx=0;entryDy=0;entryPerimeter=0;exitX=0.008;exitY=0.9;exitDx=0;exitDy=0;exitPerimeter=0;" parent="1" source="mD9Tr-Q8xh2cB8FxRo_p-9" target="mD9Tr-Q8xh2cB8FxRo_p-103" edge="1">
          <mxGeometry width="50" height="50" relative="1" as="geometry">
            <mxPoint x="1930" y="1690" as="sourcePoint" />
            <mxPoint x="1980" y="1640" as="targetPoint" />
          </mxGeometry>
        </mxCell>
        <mxCell id="gchPV3lLlGHh6u4dMBYy-36" value="" style="group" parent="1" vertex="1" connectable="0">
          <mxGeometry x="1610" y="3220" width="227" height="185" as="geometry" />
        </mxCell>
        <mxCell id="gchPV3lLlGHh6u4dMBYy-37" value="MongoDB" style="strokeWidth=2;html=1;shape=mxgraph.flowchart.database;whiteSpace=wrap;" parent="gchPV3lLlGHh6u4dMBYy-36" vertex="1">
          <mxGeometry width="227" height="185" as="geometry" />
        </mxCell>
        <mxCell id="gchPV3lLlGHh6u4dMBYy-38" value="labo5" style="html=1;whiteSpace=wrap;" parent="gchPV3lLlGHh6u4dMBYy-36" vertex="1">
          <mxGeometry x="58.5" y="115" width="110" height="30" as="geometry" />
        </mxCell>
        <mxCell id="gchPV3lLlGHh6u4dMBYy-39" value="" style="endArrow=classic;html=1;rounded=0;entryX=0.5;entryY=0;entryDx=0;entryDy=0;entryPerimeter=0;exitX=0;exitY=0;exitDx=0;exitDy=267.5;exitPerimeter=0;" parent="1" source="gchPV3lLlGHh6u4dMBYy-1" target="gchPV3lLlGHh6u4dMBYy-37" edge="1">
          <mxGeometry width="50" height="50" relative="1" as="geometry">
            <mxPoint x="3563" y="2170" as="sourcePoint" />
            <mxPoint x="3060" y="3160" as="targetPoint" />
          </mxGeometry>
        </mxCell>
        <mxCell id="sSLa41Jm4dLuRAajcqVf-121" value="" style="group" vertex="1" connectable="0" parent="1">
          <mxGeometry x="2770" y="3220" width="227" height="185" as="geometry" />
        </mxCell>
        <mxCell id="sSLa41Jm4dLuRAajcqVf-122" value="MongoDB" style="strokeWidth=2;html=1;shape=mxgraph.flowchart.database;whiteSpace=wrap;" vertex="1" parent="sSLa41Jm4dLuRAajcqVf-121">
          <mxGeometry width="227" height="185" as="geometry" />
        </mxCell>
        <mxCell id="sSLa41Jm4dLuRAajcqVf-123" value="labo5" style="html=1;whiteSpace=wrap;" vertex="1" parent="sSLa41Jm4dLuRAajcqVf-121">
          <mxGeometry x="58.5" y="115" width="110" height="30" as="geometry" />
        </mxCell>
        <mxCell id="sSLa41Jm4dLuRAajcqVf-124" value="" style="group" vertex="1" connectable="0" parent="1">
          <mxGeometry x="4130" y="1350" width="227" height="185" as="geometry" />
        </mxCell>
        <mxCell id="sSLa41Jm4dLuRAajcqVf-125" value="MongoDB" style="strokeWidth=2;html=1;shape=mxgraph.flowchart.database;whiteSpace=wrap;" vertex="1" parent="sSLa41Jm4dLuRAajcqVf-124">
          <mxGeometry width="227" height="185" as="geometry" />
        </mxCell>
        <mxCell id="sSLa41Jm4dLuRAajcqVf-126" value="labo5" style="html=1;whiteSpace=wrap;" vertex="1" parent="sSLa41Jm4dLuRAajcqVf-124">
          <mxGeometry x="58.5" y="115" width="110" height="30" as="geometry" />
        </mxCell>
        <mxCell id="sSLa41Jm4dLuRAajcqVf-127" value="" style="group" vertex="1" connectable="0" parent="1">
          <mxGeometry x="4140" y="1900" width="227" height="185" as="geometry" />
        </mxCell>
        <mxCell id="sSLa41Jm4dLuRAajcqVf-128" value="MongoDB" style="strokeWidth=2;html=1;shape=mxgraph.flowchart.database;whiteSpace=wrap;" vertex="1" parent="sSLa41Jm4dLuRAajcqVf-127">
          <mxGeometry width="227" height="185" as="geometry" />
        </mxCell>
        <mxCell id="sSLa41Jm4dLuRAajcqVf-129" value="labo5" style="html=1;whiteSpace=wrap;" vertex="1" parent="sSLa41Jm4dLuRAajcqVf-127">
          <mxGeometry x="58.5" y="115" width="110" height="30" as="geometry" />
        </mxCell>
        <mxCell id="sSLa41Jm4dLuRAajcqVf-130" value="" style="endArrow=classic;html=1;rounded=0;entryX=0;entryY=0.5;entryDx=0;entryDy=0;entryPerimeter=0;exitX=0;exitY=0;exitDx=891.5;exitDy=267.5;exitPerimeter=0;" edge="1" parent="1" source="sSLa41Jm4dLuRAajcqVf-1" target="sSLa41Jm4dLuRAajcqVf-128">
          <mxGeometry width="50" height="50" relative="1" as="geometry">
            <mxPoint x="4190" y="2530" as="sourcePoint" />
            <mxPoint x="4240" y="2480" as="targetPoint" />
          </mxGeometry>
        </mxCell>
        <mxCell id="sSLa41Jm4dLuRAajcqVf-131" value="" style="endArrow=classic;html=1;rounded=0;entryX=0.5;entryY=0;entryDx=0;entryDy=0;entryPerimeter=0;exitX=0.5;exitY=1;exitDx=0;exitDy=0;exitPerimeter=0;" edge="1" parent="1" source="sSLa41Jm4dLuRAajcqVf-91" target="sSLa41Jm4dLuRAajcqVf-122">
          <mxGeometry width="50" height="50" relative="1" as="geometry">
            <mxPoint x="3260" y="3340" as="sourcePoint" />
            <mxPoint x="3310" y="3290" as="targetPoint" />
          </mxGeometry>
        </mxCell>
        <mxCell id="sSLa41Jm4dLuRAajcqVf-132" value="" style="endArrow=classic;html=1;rounded=0;entryX=0;entryY=0.5;entryDx=0;entryDy=0;entryPerimeter=0;exitX=0;exitY=0;exitDx=891.5;exitDy=267.5;exitPerimeter=0;" edge="1" parent="1" source="sSLa41Jm4dLuRAajcqVf-61" target="sSLa41Jm4dLuRAajcqVf-125">
          <mxGeometry width="50" height="50" relative="1" as="geometry">
            <mxPoint x="4190" y="1710" as="sourcePoint" />
            <mxPoint x="4240" y="1660" as="targetPoint" />
          </mxGeometry>
        </mxCell>
        <mxCell id="sSLa41Jm4dLuRAajcqVf-144" value="" style="endArrow=classic;html=1;rounded=0;entryX=0;entryY=0;entryDx=0;entryDy=267.5;entryPerimeter=0;exitX=0;exitY=0;exitDx=891.5;exitDy=504.99999999999994;exitPerimeter=0;" edge="1" parent="1" source="mD9Tr-Q8xh2cB8FxRo_p-9" target="sSLa41Jm4dLuRAajcqVf-61">
          <mxGeometry width="50" height="50" relative="1" as="geometry">
            <mxPoint x="2830" y="1250" as="sourcePoint" />
            <mxPoint x="2880" y="1200" as="targetPoint" />
          </mxGeometry>
        </mxCell>
        <mxCell id="sSLa41Jm4dLuRAajcqVf-145" value="" style="endArrow=classic;html=1;rounded=0;entryX=0;entryY=0;entryDx=0;entryDy=0;entryPerimeter=0;exitX=0;exitY=0;exitDx=891.5;exitDy=504.99999999999994;exitPerimeter=0;" edge="1" parent="1" source="mD9Tr-Q8xh2cB8FxRo_p-9" target="sSLa41Jm4dLuRAajcqVf-1">
          <mxGeometry width="50" height="50" relative="1" as="geometry">
            <mxPoint x="2840" y="1230" as="sourcePoint" />
            <mxPoint x="2890" y="1180" as="targetPoint" />
          </mxGeometry>
        </mxCell>
        <mxCell id="sSLa41Jm4dLuRAajcqVf-147" value="" style="endArrow=classic;html=1;rounded=0;entryX=0.222;entryY=0.057;entryDx=0;entryDy=0;entryPerimeter=0;exitX=0.25;exitY=1;exitDx=0;exitDy=0;exitPerimeter=0;" edge="1" parent="1" source="mD9Tr-Q8xh2cB8FxRo_p-9" target="sSLa41Jm4dLuRAajcqVf-31">
          <mxGeometry width="50" height="50" relative="1" as="geometry">
            <mxPoint x="1650" y="1490" as="sourcePoint" />
            <mxPoint x="1700" y="1440" as="targetPoint" />
          </mxGeometry>
        </mxCell>
      </root>
    </mxGraphModel>
  </diagram>
  <diagram id="JiWJPFnwWtXcJR5wji-7" name="Page-2">
    <mxGraphModel grid="0" page="0" gridSize="10" guides="1" tooltips="1" connect="1" arrows="1" fold="1" pageScale="1" pageWidth="850" pageHeight="1100" math="0" shadow="0">
      <root>
        <mxCell id="0" />
        <mxCell id="1" parent="0" />
      </root>
    </mxGraphModel>
  </diagram>
</mxfile>
